<svg id="emoji" viewBox="0 0 72 72" xmlns="http://www.w3.org/2000/svg">
  <g id="color">
    <path fill="#D22F27" d="M28.9889,12.2111C26.5852,10.6086,25.7841,8.2049,26.5857,5c-5.6086,1.6025-4.8074,8.0123-2.4037,12.0185 C28.4286,17.82,28.9889,12.2111,28.9889,12.2111z"></path>
    <path fill="#D22F27" d="M47.1557,17.0185C49.5592,13.0123,50.3604,6.6025,44.7518,5c0.8012,3.2049,0,5.6086-2.4037,7.2111 C38.7426,14.6149,42.9084,17.82,47.1557,17.0185z"></path>
  </g>
  <g id="line">
    <path fill="none" stroke="#000000" stroke-linecap="round" stroke-linejoin="round" stroke-width="2" d="M31.7316,10.4305 c2.6719-0.8657,5.549-0.8657,8.2209,0"></path>
    
    <path fill="none" stroke="#000000" stroke-linecap="round" stroke-miterlimit="10" stroke-width="2" d="M53.3796,20.8053 c8.0928,9.599,6.8718,23.9409-2.7272,32.0337s-23.9409,6.8718-32.0337-2.7272c-7.2418-8.5896-7.1228-21.1812,0.2801-29.6325"></path>
    <path fill="none" stroke="#000000" stroke-linecap="round" stroke-linejoin="round" stroke-width="2" d="M28.9889,12.2111 C26.5852,10.6086,25.7841,8.2049,26.5857,5c-5.6086,1.6025-4.8074,8.0123-2.4037,12.0185 C28.4286,17.82,28.9889,12.2111,28.9889,12.2111z"></path>
    <path fill="none" stroke="#000000" stroke-linecap="round" stroke-linejoin="round" stroke-width="2" d="M47.1557,17.0185 C49.5592,13.0123,50.3604,6.6025,44.7518,5c0.8012,3.2049,0,5.6086-2.4037,7.2111C38.7426,14.6149,42.9084,17.82,47.1557,17.0185z"></path>
  </g>
</svg>
