<svg id="emoji" viewBox="0 0 72 72" xmlns="http://www.w3.org/2000/svg">
  <g id="color">
    <path fill="#d0cfce" d="m56.7269,32.3778c0,5.4783-2.5938,10.7782-5.1217,15.641-.6345,1.2206-1.6558,1.9659-2.3853,3.0844-.608.9322-.9846,2.239-1.6421,3.0841-3.9933,5.1332-7.7668,8.8127-11.6352,8.8127-3.8271,0-7.7665-3.3191-11.7333-8.3606-.6817-.8663-1.1468-2.4572-1.7765-3.4172-.5315-.8103-1.6251-2.4093-2.1087-3.2757-2.8522-5.1095-5.1658-9.6774-5.1658-15.5687,0-14.9608,10.3921-22.3778,20.7843-22.3778s20.7843,7.417,20.7843,22.3778Z"></path>
  </g>
  <g id="line">
    <path fill="none" stroke="#000" stroke-linecap="round" stroke-linejoin="round" stroke-width="2" d="m35.9426,63c-8.125,0-11.9655-7.7752-13.12-10.6909-.2705-.6831-.6645-1.3029-1.1743-1.8319-1.8804-1.9513-6.49-7.7864-6.49-18.0994,0-14.9608,10.3921-22.3778,20.7843-22.3778s20.7843,7.417,20.7843,22.3778c0,10.3722-4.1733,15.6905-6.2294,17.8189-.6696.6932-1.2358,1.4796-1.6556,2.3472-4.0276,8.3235-8.733,10.4561-12.8993,10.4561Z"></path>
    
  </g>
</svg>
