<svg id="emoji" viewBox="0 0 72 72" xmlns="http://www.w3.org/2000/svg">
  <g id="color">
    <polygon fill="#8967AA" points="10,21 10,35 13,35 13,38 16,38 16,45 22,45 22,51 27,51 28,51 28,45 44,45 44,51 50,51 50,45 56,45 56,38 59,38 59,35 62,35 62,20 56,20 56,24 56,25 49,25 49,20 45,20 45,14 39,14 39,20 32,20 32,14 26,14 26,20 22,20 22,25 16,25 16,20 10,20"></polygon>
    <rect x="16" y="51" fill="#8967AA"></rect>
    <rect x="50" y="51" fill="#8967AA"></rect>
  </g>
  <g id="line">
    
    <polyline fill="none" stroke="#000000" stroke-linecap="round" stroke-linejoin="round" stroke-width="2" points="22,45 16,45 16,39"></polyline>
    <polyline fill="none" stroke="#000000" stroke-linecap="round" stroke-linejoin="round" stroke-width="2" points="22.583,25 22.583,20 26,20"></polyline>
    <polyline fill="none" stroke="#000000" stroke-linecap="round" stroke-linejoin="round" stroke-width="2" points="48.708,25 48.708,20 45.292,20"></polyline>
    <polyline fill="none" stroke="#000000" stroke-linecap="round" stroke-linejoin="round" stroke-width="2" points="13,35 10,35 10,20 16,20 16,35"></polyline>
    <polyline fill="none" stroke="#000000" stroke-linecap="round" stroke-linejoin="round" stroke-width="2" points="56,35 56,20 62,20 62,35 59,35"></polyline>
    <polyline fill="none" stroke="#000000" stroke-linecap="round" stroke-linejoin="round" stroke-width="2" points="26,20 26,14 32,14 32,20"></polyline>
    <polyline fill="none" stroke="#000000" stroke-linecap="round" stroke-linejoin="round" stroke-width="2" points="39,20 39,14 45,14 45,20"></polyline>
    <polyline fill="none" stroke="#000000" stroke-linecap="round" stroke-linejoin="round" stroke-width="2" points="16,35 19,35 19,38 13,38 13,35"></polyline>
    <polyline fill="none" stroke="#000000" stroke-linecap="round" stroke-linejoin="round" stroke-width="2" points="59,35 59,38 53,38 53,35 56,35"></polyline>
    <rect x="16" y="51" fill="none" stroke="#000000" stroke-linecap="round" stroke-linejoin="round" stroke-width="2"></rect>
    <rect x="50" y="51" fill="none" stroke="#000000" stroke-linecap="round" stroke-linejoin="round" stroke-width="2"></rect>
    <polyline fill="none" stroke="#000000" stroke-linecap="round" stroke-linejoin="round" stroke-width="2" points="28,45 28,51 22,51 22,45"></polyline>
    <polyline fill="none" stroke="#000000" stroke-linecap="round" stroke-linejoin="round" stroke-width="2" points="50,45 56,45 56,39"></polyline>
    <polyline fill="none" stroke="#000000" stroke-linecap="round" stroke-linejoin="round" stroke-width="2" points="44,45 44,51 50,51 50,45"></polyline>
    <path fill="none" stroke="#000000" stroke-linecap="round" stroke-linejoin="round" stroke-width="2" d="M39,20L39,20z"></path>
    <line x1="32" x2="39" y1="20" y2="20" fill="none" stroke="#000000" stroke-linecap="round" stroke-linejoin="round" stroke-width="2"></line>
  </g>
</svg>
