<svg id="emoji" viewBox="0 0 72 72" xmlns="http://www.w3.org/2000/svg">
  <g id="color">
    
    <path fill="#fff" stroke="#fff" stroke-linecap="round" stroke-linejoin="round" d="m23.2977,23.8647l.4543-.5574c1.2341-1.514,3.4619-1.7409,4.9759-.5068l4.5938,3.7446c1.514,1.2341,1.7409,3.4619.5068,4.9759l-.4543.5574c-1.2341,1.514-3.4619,1.7409-4.9759.5068l-4.5938-3.7446c-1.5141-1.2341-1.741-3.4619-.5068-4.9759Z"></path>
    <path fill="#fff" stroke="#fff" stroke-linecap="round" stroke-linejoin="round" d="m39.7519,32.0784l-.4543-.5574c-1.2341-1.514-1.0072-3.7418.5068-4.9759l4.5938-3.7446c1.514-1.2341,3.7418-1.0072,4.9759.5068l.4543.5574c1.2341,1.514,1.0072,3.7418-.5068,4.9759l-4.5938,3.7446c-1.5139,1.2341-3.7417,1.0072-4.9759-.5068Z"></path>
    <g>
      
      <path fill="#d22f27" d="m38.8666,35h8.8922c1.4105,0,2.5539,1.1434,2.5539,2.5539v.8922c0,1.4105-1.1434,2.5539-2.5539,2.5539h-8.8922c-1.4105,0-2.5539-1.1434-2.5539-2.5539v-.8922c0-1.4105,1.1434-2.5539,2.5539-2.5539Z"></path>
    </g>
  </g>
  <g id="line">
    <path d="m33.63,28.9252c0,1.6569-1.3431,3-3,3s-3-1.3431-3-3,1.3431-3,3-3h0c1.6565.0007,2.9993,1.3434,3,3"></path>
    <path d="m45.63,28.9252c0,1.6569-1.3431,3-3,3s-3-1.3431-3-3,1.3431-3,3-3h0c1.6566.0006,2.9994,1.3434,3,3"></path>
    <line x1="60.3127" x2="55.4303" y1="35" y2="35" fill="none" stroke="#000" stroke-linecap="round" stroke-linejoin="round" stroke-width="2"></line>
    <path fill="none" stroke="#000" stroke-linecap="round" stroke-linejoin="round" stroke-width="2" d="m56.5002,41h4.8125s4,0,4-3c.0345-1.6224-1.2527-2.9655-2.8751-3-.0416-.0009-.0833-.0009-.1249,0h-2"></path>
  </g>
</svg>
