<svg id="emoji" viewBox="0 0 72 72" xmlns="http://www.w3.org/2000/svg">
  <g id="color">
    <path fill="#3f3f3f" d="m22.5696,42.348c1.9926,3.7,5.3442,5.7121,7.4861,4.4943,2.1418-1.2178,2.2628-5.2045.2702-8.9045s-5.3442-5.7121-7.4861-4.4943-2.2628,5.2046-.2702,8.9045Z"></path>
    <path fill="#3f3f3f" d="m49.0317,42.348c-1.9926,3.7-5.3442,5.7121-7.4861,4.4943-2.1418-1.2178-2.2628-5.2045-.2702-8.9045s5.3442-5.7121,7.4861-4.4943c2.1418,1.2179,2.2628,5.2046.2702,8.9045Z"></path>
  </g>
  <g id="line">
    
    <path fill="none" stroke="#000" stroke-miterlimit="10" stroke-width="2" d="m22.5696,42.348c1.9926,3.7,5.3442,5.7121,7.4861,4.4943,2.1418-1.2178,2.2628-5.2045.2702-8.9045s-5.3442-5.7121-7.4861-4.4943-2.2628,5.2046-.2702,8.9045Z"></path>
    
    <path fill="none" stroke="#000" stroke-miterlimit="10" stroke-width="2" d="m49.0317,42.348c-1.9926,3.7-5.3442,5.7121-7.4861,4.4943-2.1418-1.2178-2.2628-5.2045-.2702-8.9045s5.3442-5.7121,7.4861-4.4943c2.1418,1.2179,2.2628,5.2046.2702,8.9045Z"></path>
  </g>
</svg>
