<svg id="emoji" viewBox="0 0 72 72" xmlns="http://www.w3.org/2000/svg">
  <g id="color">
    <path fill="#FFFFFF" d="M41.1835,14.216c-1.6784-0.5099-3.4229-0.7694-5.177-0.77h-0.036c-1.2518,0.0041-2.5,0.1334-3.726,0.386 c-4.3415,0.9348-8.1984,3.4083-10.859,6.964c-2.0244,2.6542-3.3639,5.7662-3.9,9.061c-1.0764,6.1694,0.6871,12.4953,4.8,17.218 l0.133,0.149c1.055,1.19,2.5,2.82,2.5,4.554l-0.022,4.988c0,0.5523-0.4477,1-1,1l0,0c2.2224,1.1344,4.5781,1.9863,7.012,2.536 c3.8115,0.8585,7.7771,0.7502,11.536-0.315C45.6595,44.81,44.8105,28.958,41.1835,14.216z"></path>
    <path fill="#D0CFCE" d="M48.8895,18.863c-2.1471-2.1598-4.794-3.7563-7.706-4.648c3.627,14.742,4.476,30.595,1.258,45.766 c1.9461-0.5441,3.8246-1.3059,5.6-2.271c-0.5501,0.0023-1.0009-0.436-1.014-0.986l-0.069-4.943c0-1.65,1.4-3.191,2.421-4.317 c0.145-0.159,0.283-0.311,0.407-0.453c7.0513-8.1923,6.6643-20.4171-0.891-28.147L48.8895,18.863z"></path>
  </g>
</svg>
