<svg id="emoji" viewBox="0 0 72 72" xmlns="http://www.w3.org/2000/svg">
  <g id="color">
    
    <path fill="#6A462F" d="M31,13c3.1022,1.4756,6.1082,3.1456,9,5c2.3,1.5,3.5,2.4,4,4c0.6,2.1-0.5,4.1-1,5 c1.733-0.395,3.5522-0.0312,5,1c1.0498,0.6835,1.7728,1.7681,2,3c0.2183,1.4136-0.1422,2.8555-1,4c1.3967-0.0125,2.7735,0.3317,4,1 c1.3238,0.613,2.387,1.6762,3,3c0.7,1.9-0.2,4.3-2,6c1.4142-0.2318,2.8613,0.13,4,1c1.5089,1.192,2.2706,3.0962,2,5 c-0.5,3.5-4.6,4.9-5,5c-2.2,0.7-14.8-1.2-10-2c6-1,7.9-2.7,8-3c1-2-2-4-4-4c0.2-3.3-0.7-5.8-6-7c0.7-3.2-0.2-8.1-4-9 c2-4,0.4-7.2-1-10C36,17,35,15,31,13z"></path>
  </g>
  
</svg>
