<svg id="emoji" viewBox="0 0 72 72" xmlns="http://www.w3.org/2000/svg">
  <g id="color">
    <ellipse cx="27.2" cy="39.4001" rx="4.9" ry="6.9" fill="#FFFFFF"></ellipse>
    <ellipse cx="43.6" cy="38.9001" rx="4.9" ry="6.9" fill="#FFFFFF"></ellipse>
  </g>
  <g id="line">
    
    <path fill="none" stroke="#000000" stroke-miterlimit="10" stroke-width="2.436" d="M30.9,44.6 c-0.7483,1.0288-1.9286,1.6558-3.2,1.7c-2.7,0-4.9-3.1-4.9-6.9s2.2-6.9,4.9-6.9s4.9,3.1,4.9,6.9 C32.6207,41.2731,32.0232,43.1008,30.9,44.6"></path>
    <path fill="none" stroke="#000000" stroke-miterlimit="10" stroke-width="2.436" d="M39.8,42.3 c-0.4095-1.0862-0.613-2.2392-0.6-3.4c0-3.8,2.2-6.9,4.9-6.9s4.9,3,4.9,6.9s-2.2,6.9-4.9,6.9C42.3,45.8,40.7,44.4,39.8,42.3"></path>
    <path d="M46.1,39c0,1.1046-0.8954,2-2,2s-2-0.8954-2-2s0.8954-2,2-2S46.1,37.8954,46.1,39"></path>
    <path d="M29.7,39.4c0,1.1046-0.8954,2-2,2s-2-0.8954-2-2s0.8954-2,2-2S29.7,38.2954,29.7,39.4"></path>
  </g>
</svg>
