<svg id="emoji" viewBox="0 0 72 72" xmlns="http://www.w3.org/2000/svg">
  <g id="color">
    <path fill="#92d3f5" d="M65.7563,47.3378a4.2418,4.2418,0,0,1-6.001.001c-2.9718-2.9717-3.0059-8.961-3.0063-9.0208.2314.0131,6.0508.0625,9.0073,3.019a4.2411,4.2411,0,0,1,0,6.0008Z"></path>
    <path fill="#92d3f5" d="M6.2392,47.3385a4.242,4.242,0,0,1-.0011-6.0011c2.9717-2.9717,8.9611-3.0059,9.0208-3.0063-.0131.2314-.0625,6.0509-3.019,9.0074a4.2412,4.2412,0,0,1-6.0007,0Z"></path>
  </g>
  <g id="line">
    <path fill="none" stroke="#000" stroke-linejoin="round" stroke-width="2" d="M65.7563,47.3378a4.2418,4.2418,0,0,1-6.001.001c-2.9718-2.9717-3.0059-8.961-3.0063-9.0208.2314.0131,6.0508.0625,9.0073,3.019a4.2411,4.2411,0,0,1,0,6.0008Z"></path>
    <path fill="none" stroke="#000" stroke-linejoin="round" stroke-width="2" d="M6.2392,47.3385a4.242,4.242,0,0,1-.0011-6.0011c2.9717-2.9717,8.9611-3.0059,9.0208-3.0063-.0131.2314-.0625,6.0509-3.019,9.0074a4.2412,4.2412,0,0,1-6.0007,0Z"></path>
    <path fill="none" stroke="#000" stroke-linecap="round" stroke-miterlimit="10" stroke-width="2" d="M31.6941,35.1642a4.7263,4.7263,0,0,0-8.6382,0"></path>
    <path fill="none" stroke="#000" stroke-linecap="round" stroke-miterlimit="10" stroke-width="2" d="M48.9441,35.1642a4.7263,4.7263,0,0,0-8.6382,0"></path>
  </g>
</svg>
