<svg id="emoji" viewBox="0 0 72 72" xmlns="http://www.w3.org/2000/svg">
  <g id="color">
    
    <path fill="#92D3F5" d="M24.8117,10.5867c0.1789,0.1789,4.3858,4.4369,4.3857,8.8871c0,2.7193-2.2652,4.9237-5.0594,4.9237 s-5.0594-2.2044-5.0594-4.9237c-0.0001-4.4502,4.2068-8.7082,4.3857-8.8871c0.3722-0.3722,0.975-0.372,1.347,0H24.8117z"></path>
  </g>
  <g id="line">
    <path fill="none" stroke="#000000" stroke-miterlimit="10" stroke-width="2" d="M24.8117,10.5867 c0.1789,0.1789,4.3858,4.4369,4.3857,8.8871c0,2.7193-2.2652,4.9237-5.0594,4.9237s-5.0594-2.2044-5.0594-4.9237 c-0.0001-4.4502,4.2068-8.7082,4.3857-8.8871c0.3722-0.3722,0.975-0.372,1.347,0H24.8117z"></path>
  </g>
</svg>
