<svg id="emoji" viewBox="0 0 72 72" xmlns="http://www.w3.org/2000/svg">
  <g id="color">
    
    <path fill="#D22F27" d="M53.0134,44.4703c-1.9101-0.5703-3.9277,0.5201-4.498,2.4301c-0.1899,0.6362-0.2018,1.3099-0.0342,1.948 l0.111,0.3522l3.797,9.7215l8.5568-6.0862c0.6097-0.4613,1.0532-1.1008,1.275-1.8435c0.5703-1.91-0.5199-3.9283-2.4306-4.4987 c-1.3381-0.3995-2.7576-0.0041-3.7038,1.0317c-0.0808,0.0887-0.2057,0.1237-0.3214,0.0892 c-0.1151-0.0344-0.2004-0.1321-0.2199-0.2508C55.3224,45.9789,54.3521,44.87,53.0134,44.4703z"></path>
  </g>
  <g id="line">
    <path fill="none" stroke="#000000" stroke-linecap="round" stroke-linejoin="round" stroke-miterlimit="10" stroke-width="2" d="M53.0134,44.4703c-1.9101-0.5703-3.9277,0.5201-4.498,2.4301c-0.1899,0.6362-0.2018,1.3099-0.0342,1.948l0.111,0.3522l3.797,9.7215 l8.5568-6.0862c0.6097-0.4613,1.0532-1.1008,1.275-1.8435c0.5703-1.91-0.5199-3.9283-2.4306-4.4987 c-1.3381-0.3995-2.7576-0.0041-3.7038,1.0317c-0.0808,0.0887-0.2057,0.1237-0.3214,0.0892 c-0.1151-0.0344-0.2004-0.1321-0.2199-0.2508C55.3224,45.9789,54.3521,44.87,53.0134,44.4703z"></path>
  </g>
</svg>
