<svg id="emoji" viewBox="0 0 72 72" xmlns="http://www.w3.org/2000/svg">
  <g id="color">
    
    <path fill="#92d3f5" d="M19.683,55.2042c-.165,0-.33-.0069-.4951-.02a6.0679,6.0679,0,0,1-5.5606-6.52c.3887-4.8672,5.2237-9.0215,5.4288-9.1963a1.9057,1.9057,0,0,1,1.42-.459,1.9411,1.9411,0,0,1,1.331.6788c.4405.52,4.28,5.1943,3.9024,9.9355A6.02,6.02,0,0,1,23.6,53.7559h0A6.0065,6.0065,0,0,1,19.683,55.2042Z"></path>
  </g>
  <g id="line">
    <path fill="none" stroke="#000" stroke-miterlimit="10" stroke-width="2" d="M22.9511,52.9953a5.0262,5.0262,0,0,0,1.7615-3.45c.3532-4.4362-3.5025-9.0145-3.6667-9.2071a.9522.9522,0,0,0-1.3428-.1068c-.1929.1645-4.7241,4.0753-5.0783,8.5123l0,0a5.0608,5.0608,0,0,0,8.3267,4.2513Z"></path>
  </g>
</svg>
