<svg id="emoji" viewBox="0 0 72 72" xmlns="http://www.w3.org/2000/svg">
  <g id="color">
    
    <path fill="#92D3F5" d="M53.0243,55.0045c-1.3489-0.0915-2.5814-0.7028-3.4702-1.7214c-2.9266-3.3525-2.5576-9.3267-2.5405-9.5792 c0.0356-0.5252,0.4899-0.9214,1.0148-0.8858c0.2529,0.0172,6.2222,0.4585,9.1501,3.811h0.0005 c1.833,2.1017,1.6153,5.3044-0.486,7.1383C55.6765,54.6568,54.3732,55.096,53.0243,55.0045z"></path>
  </g>
  <g id="line">
    <path fill="none" stroke="#000000" stroke-miterlimit="10" stroke-width="2" d="M53.0243,55.0045 c-1.3489-0.0915-2.5814-0.7028-3.4702-1.7214c-2.9266-3.3525-2.5576-9.3267-2.5405-9.5792 c0.0356-0.5252,0.4899-0.9214,1.0148-0.8858c0.2529,0.0172,6.2222,0.4585,9.1501,3.811h0.0005 c1.833,2.1017,1.6153,5.3044-0.486,7.1383C55.6765,54.6568,54.3732,55.096,53.0243,55.0045z"></path>
    
  </g>
</svg>
