<svg id="emoji" viewBox="0 0 72 72" version="1.1" xmlns="http://www.w3.org/2000/svg">
  <g id="line-supplement">
    <path d="m42.847 45.658c0-2.592-3.834-4.694-6.869-4.694s-6.869 2.101-6.869 4.694 3.659 0.9248 6.694 0.9248 7.044 1.6669 7.044-0.9248z"></path>
  </g>
  <g id="color">
    
    <path d="m42.847 45.658c0-2.592-3.834-4.694-6.869-4.694s-6.869 2.101-6.869 4.694 3.659 0.9248 6.694 0.9248 7.044 1.6669 7.044-0.9248z"></path>
  </g>
  <g id="line">
    <path fill="none" stroke="#000" stroke-miterlimit="10" stroke-width="2" d="m42.847 45.658c0-2.592-3.834-4.694-6.869-4.694s-6.869 2.101-6.869 4.694 3.659 0.9248 6.694 0.9248 7.044 1.6669 7.044-0.9248z"></path>
  </g>
</svg>
