<svg id="emoji" viewBox="0 0 72 72" xmlns="http://www.w3.org/2000/svg">
  <g id="color">
    
    <path fill="#FFFFFF" d="M44.5,49.2708h-17c-2.2064-0.0065-3.9935-1.7936-4-4l0,0c0.0065-2.2064,1.7936-3.9935,4-4h17 c2.2064,0.0065,3.9935,1.7936,4,4l0,0C48.4935,47.4772,46.7064,49.2643,44.5,49.2708z"></path>
  </g>
  <g id="line">
    <line x1="28" x2="28" y1="41.7708" y2="48.7708" fill="none" stroke="#000000" stroke-linecap="round" stroke-linejoin="round" stroke-width="2"></line>
    <line x1="33" x2="33" y1="41.7708" y2="48.7708" fill="none" stroke="#000000" stroke-linecap="round" stroke-linejoin="round" stroke-width="2"></line>
    <line x1="38" x2="38" y1="41.7708" y2="48.7708" fill="none" stroke="#000000" stroke-linecap="round" stroke-linejoin="round" stroke-width="2"></line>
    <line x1="43" x2="43" y1="41.7708" y2="48.7708" fill="none" stroke="#000000" stroke-linecap="round" stroke-linejoin="round" stroke-width="2"></line>
    
    <path fill="none" stroke="#000000" stroke-miterlimit="2" stroke-width="2" d="M44.5,49.2708h-17c-2.2064-0.0065-3.9935-1.7936-4-4 l0,0c0.0065-2.2064,1.7936-3.9935,4-4h17c2.2064,0.0065,3.9935,1.7936,4,4l0,0C48.4935,47.4772,46.7064,49.2643,44.5,49.2708z"></path>
  </g>
</svg>
