<svg id="emoji" viewBox="0 0 72 72" xmlns="http://www.w3.org/2000/svg">
  <g id="line-supplement">
    <path d="M42.8472,45.6583c0-2.592-3.834-4.694-6.869-4.694s-6.869,2.101-6.869,4.694,3.659.9248,6.694.9248S42.8472,48.25,42.8472,45.6583Z"></path>
  </g>
  <g id="color">
    <path d="M42.8472,45.6583c0-2.592-3.834-4.694-6.869-4.694s-6.869,2.101-6.869,4.694,3.659.9248,6.694.9248S42.8472,48.25,42.8472,45.6583Z"></path>
  </g>
  <g id="line">
    <path fill="none" stroke="#000" stroke-miterlimit="10" stroke-width="2" d="M42.8472,45.6583c0-2.592-3.834-4.694-6.869-4.694s-6.869,2.101-6.869,4.694,3.659.9248,6.694.9248S42.8472,48.25,42.8472,45.6583Z"></path>
  </g>
</svg>
