<svg id="emoji" viewBox="0 0 72 72" xmlns="http://www.w3.org/2000/svg">
  <g id="line-supplement">
    <path fill="none" stroke="#000" stroke-linecap="round" stroke-linejoin="round" stroke-width="2" d="m52,52.38c.8775-1.631,1-5.38,1-7.38,0-4-4-11-4-11"></path>
    <path fill="none" stroke="#000" stroke-linecap="round" stroke-linejoin="round" stroke-width="2" d="m44,36s3,6.728,3,10c0,3.065-1,8-1,10"></path>
    <path fill="none" stroke="#000" stroke-linecap="round" stroke-linejoin="round" stroke-width="2" d="m20,52.4c-.8775-1.631-1-5.4-1-7.4,0-4,4-11,4-11"></path>
    <path fill="none" stroke="#000" stroke-linecap="round" stroke-linejoin="round" stroke-width="2" d="m28,36s-3,6.728-3,10c0,3.065,1,8,1,10"></path>
  </g>
  <g id="color">
    
    <path fill-rule="evenodd" d="m35.93,51.58c-2.461,0-4.742-2.368-4.742-4.987s2.444-4.66,4.905-4.66,4.701,2.205,4.701,4.823-2.403,4.823-4.864,4.823v.001Z"></path>
    
    <path fill="#92d3f5" d="m29.7,32.02c-5.762,9.541-3.86,14.27-3.696,23.98,0,1.803-5.146-2.412-6-4-2.17-5.92-.3989-13.81,2.5-19.18,2.887-1.622,6.992-2.084,7.196-.8031v.0031Z"></path>
    <path fill="#92d3f5" d="m42.3,32.4c5.762,9.541,3.86,13.27,3.696,22.98,0,1.803,5.396-2.412,6.25-4,2.17-5.92.1489-12.81-2.75-18.18-2.887-1.622-6.992-2.084-7.196-.8031v.0031Z"></path>
  </g>
  <g id="line">
    <circle cx="36" cy="46.6" r="4.759" fill="none" stroke="#000" stroke-linecap="round" stroke-linejoin="round" stroke-width="2"></circle>
  </g>
</svg>
