<svg id="emoji" viewBox="0 0 72 72" xmlns="http://www.w3.org/2000/svg">
  <g id="color">
    
    <path fill="#D0CFCE" d="M41.5405,37.4966L55.2873,43.81c0,0,3.8107-4.3777,7.3934-0.753c1.8042,1.6892,1.8974,4.5211,0.2082,6.3253 c0,0,0,0.0001-0.0001,0.0001c-0.0219,0.0235-0.0441,0.0468-0.0666,0.07c-0.0338,0.0348,3.46,3.3212,0.3024,6.4791 c-1.6137,1.6749-4.2497,1.8118-6.0282,0.313c0,0-2.5219,3.7564-6.086-0.2145s0.8088-7.42,0.8088-7.42L41.5405,37.4966z"></path>
    <path fill="#D0CFCE" d="M30.4596,37.4966L16.7127,43.81c0,0-3.8107-4.3777-7.3934-0.753 c-1.8042,1.6892-1.8974,4.5211-0.2082,6.3253c0,0,0,0.0001,0.0001,0.0001c0.0219,0.0235,0.0441,0.0468,0.0666,0.07 c0.0338,0.0348-3.46,3.3212-0.3024,6.4791c1.6137,1.6749,4.2498,1.8118,6.0283,0.313c0,0,2.5218,3.7566,6.0858-0.2148 s-0.8088-7.42-0.8088-7.42L30.4596,37.4966z"></path>
  </g>
  <g id="line">
    <path fill="none" stroke="#000000" stroke-linecap="round" stroke-linejoin="round" stroke-width="2" d="M30.4596,37.4966 L16.7127,43.81c0,0-3.8107-4.3777-7.3934-0.753c-1.8042,1.6892-1.8974,4.5211-0.2082,6.3253c0,0,0,0.0001,0.0001,0.0001 c0.0219,0.0235,0.0441,0.0468,0.0666,0.07c0.0338,0.0348-3.46,3.3212-0.3024,6.4791c1.6137,1.6749,4.2498,1.8118,6.0283,0.313 c0,0,2.5218,3.7566,6.0858-0.2148s-0.8088-7.42-0.8088-7.42L30.4596,37.4966z"></path>
    <path fill="none" stroke="#000000" stroke-linecap="round" stroke-linejoin="round" stroke-width="2" d="M41.5405,37.4966 L55.2873,43.81c0,0,3.8107-4.3777,7.3934-0.753c1.8042,1.6892,1.8974,4.5211,0.2082,6.3253c0,0,0,0.0001-0.0001,0.0001 c-0.0219,0.0235-0.0441,0.0468-0.0666,0.07c-0.0338,0.0348,3.46,3.3212,0.3024,6.4791c-1.6137,1.6749-4.2497,1.8118-6.0282,0.313 c0,0-2.5219,3.7564-6.086-0.2145s0.8088-7.42,0.8088-7.42L41.5405,37.4966z"></path>
  </g>
</svg>
