<svg id="emoji" viewBox="0 0 72 72" xmlns="http://www.w3.org/2000/svg">
  
  <g id="line">
    <g>
      <g>
        <path transform="translate(0 0)" fill="none" stroke="#000" stroke-linecap="round" stroke-miterlimit="10" stroke-width="2" d="M41.27,30.9367a5.4893,5.4893,0,1,1,10.9786,0"></path>
        <path transform="translate(0 0)" fill="none" stroke="#000" stroke-linecap="round" stroke-miterlimit="10" stroke-width="2" d="M44.93,30.9367a1.83,1.83,0,0,1,3.66,0"></path>
      </g>
      <path transform="translate(0 0)" fill="none" stroke="#000" stroke-linecap="round" stroke-miterlimit="10" stroke-width="2" d="M41.27,30.9367a7.3149,7.3149,0,0,0,7.3107,7.3191h.0084"></path>
      <path transform="translate(0 0)" fill="none" stroke="#000" stroke-linecap="round" stroke-miterlimit="10" stroke-width="2" d="M44.93,30.9367a3.66,3.66,0,0,0,7.319.121q.001-.06,0-.121"></path>
    </g>
    <g>
      <g>
        <path transform="translate(0 0)" fill="none" stroke="#000" stroke-linecap="round" stroke-miterlimit="10" stroke-width="2" d="M19.3155,30.9367a5.4893,5.4893,0,0,1,10.9786,0"></path>
        <path transform="translate(0 0)" fill="none" stroke="#000" stroke-linecap="round" stroke-miterlimit="10" stroke-width="2" d="M22.975,30.9367a1.83,1.83,0,0,1,3.66,0"></path>
      </g>
      <path transform="translate(0 0)" fill="none" stroke="#000" stroke-linecap="round" stroke-miterlimit="10" stroke-width="2" d="M19.3155,30.9367a7.3149,7.3149,0,0,0,7.3107,7.3191h.0084"></path>
      <path transform="translate(0 0)" fill="none" stroke="#000" stroke-linecap="round" stroke-miterlimit="10" stroke-width="2" d="M22.975,30.9367a3.66,3.66,0,1,0,7.3191.1148q.0009-.0573,0-.1148"></path>
    </g>
  </g>
</svg>
