<svg id="emoji" viewBox="0 0 72 72" xmlns="http://www.w3.org/2000/svg">
  <g id="color">
    <path transform="translate(0 0)" fill="#fff" d="M18.4,54.4A6.7359,6.7359,0,0,1,17.8,41h0a5.0376,5.0376,0,0,1,4.9-5.2A4.8469,4.8469,0,0,1,27.2,39a5.6144,5.6144,0,0,1,3.1-.9,6.4244,6.4244,0,0,1,6.3,6.4,4.5519,4.5519,0,0,1,2-.5,5.1706,5.1706,0,0,1,4.9,5.5,5.1146,5.1146,0,0,1-4.9,4.9Z"></path>
    <path transform="translate(0 0)" fill="#d0cfce" d="M53.3,59.9a6.7439,6.7439,0,0,0,6.8-6.8,6.8412,6.8412,0,0,0-6.2-6.8h0A5.3351,5.3351,0,0,0,48.6,41a5.5022,5.5022,0,0,0-4.9,3.2,6.6966,6.6966,0,0,0-9.2,2.5,8.0165,8.0165,0,0,0-.9,3,5.28,5.28,0,0,0-4.4,9.6,5.45,5.45,0,0,0,2.2.5H53.3Z"></path>
    
  </g>
  <g id="line">
    <path transform="translate(0 0)" fill="none" stroke="#000" stroke-linecap="round" stroke-linejoin="round" stroke-width="2" d="M21.9,53.5H18.2a6.1107,6.1107,0,0,1-.5-12.2h0a4.6946,4.6946,0,0,1,4.7-4.7,4.7856,4.7856,0,0,1,4.4,2.9,6.1141,6.1141,0,0,1,7.6,1.3"></path>
    <path transform="translate(0 0)" fill="none" stroke="#000" stroke-linecap="round" stroke-linejoin="round" stroke-width="2" d="M53.3,59.9a6.7439,6.7439,0,0,0,6.8-6.8,6.8412,6.8412,0,0,0-6.2-6.8h0A5.3351,5.3351,0,0,0,48.6,41a5.5022,5.5022,0,0,0-4.9,3.2,6.6966,6.6966,0,0,0-9.2,2.5,8.0165,8.0165,0,0,0-.9,3,5.28,5.28,0,0,0-4.4,9.6,5.45,5.45,0,0,0,2.2.5H53.3Z"></path>
    
  </g>
</svg>
