<svg id="emoji" viewBox="0 0 72 72" xmlns="http://www.w3.org/2000/svg">
  
  <g id="line">
    <path transform="translate(0 0)" fill="none" stroke="#000" stroke-linecap="round" stroke-linejoin="round" stroke-width="2" d="M53.4,29.9a18.1487,18.1487,0,0,1,1,6.1,17.7021,17.7021,0,0,1-.1,2.3"></path>
    <path transform="translate(0 0)" fill="none" stroke="#000" stroke-linecap="round" stroke-linejoin="round" stroke-width="2" d="M17.7,34.1A18.27,18.27,0,0,1,30,18.6"></path>
    <path transform="translate(0 0)" d="M31.2,32a2.4,2.4,0,1,1-2.4-2.4h0A2.4334,2.4334,0,0,1,31.2,32"></path>
    <path transform="translate(0 0)" d="M45.6,32a2.4,2.4,0,1,1-2.4-2.4A2.4334,2.4334,0,0,1,45.6,32"></path>
  </g>
</svg>
