<svg id="emoji" viewBox="0 0 72 72" xmlns="http://www.w3.org/2000/svg">
  <g id="color">
    <path fill="#fcea2b" d="m50.07,65.35c.9871-4.017,1.6806-3.191,1.974-5.957-.4629-1.34-.771-3.423-.7441-5.946.0213-1.978.1355-2.668,1.079-6.899,1.241-5.568.428-6.914,1.135-6.957,1.269-.0767,3.11,4.147,3.951,7.807.8934,3.886-1.4577,9.572-1.4577,9.572l1.5405,5.589"></path>
    <path fill="#fcea2b" d="m21.87,64.97c-.9871-4.017-1.1806-2.691-1.474-5.457.4629-1.34.771-3.423.7441-5.946-.0213-1.978.6145-2.668-.329-6.899-1.241-5.568-1.178-6.914-1.885-6.957-1.269-.0767-3.36,4.147-4.201,7.807-.8934,3.886,1.9577,9.572,1.9577,9.572l-1.5405,5.339"></path>
  </g>
  <g id="line">
    <path fill="none" stroke="#000" stroke-linecap="round" stroke-linejoin="round" stroke-width="2" d="m49.81,64.32c1.208-3.956.9131-2.154,1.359-4.899-.3878-1.364-.8299-3.474-.6628-5.992.131-1.973,2.418-3.208,2.841-7.757.4175-4.077.4286-5.896,1.137-5.899,1.271-.0062,3.125,4.327,3.762,8.028.6764,3.93-1.667,9.391-1.667,9.391l1.365,4.535"></path>
    <path fill="none" stroke="#000" stroke-linecap="round" stroke-linejoin="round" stroke-width="2" d="m22.57,64.32c-1.208-3.956-.9131-2.154-1.359-4.899.3878-1.364.8299-3.474.6628-5.992-.131-1.973-2.418-3.208-2.841-7.757-.4175-4.077-.4286-5.896-1.137-5.899-1.271-.0062-3.125,4.327-3.762,8.028-.6764,3.93,1.667,9.391,1.667,9.391l-1.365,4.535"></path>
    
  </g>
</svg>
