<svg id="emoji" viewBox="0 0 72 72" xmlns="http://www.w3.org/2000/svg">
  <g id="line-supplement">
    <line x1="18" x2="20" y1="39.8839" y2="37.8839" fill="none" stroke="#000000" stroke-linecap="round" stroke-linejoin="round" stroke-miterlimit="10" stroke-width="2"></line>
    <line x1="20" x2="24" y1="43.8839" y2="39.8839" fill="none" stroke="#000000" stroke-linecap="round" stroke-linejoin="round" stroke-miterlimit="10" stroke-width="2"></line>
    <line x1="54" x2="52" y1="39.8839" y2="37.8839" fill="none" stroke="#000000" stroke-linecap="round" stroke-linejoin="round" stroke-miterlimit="10" stroke-width="2"></line>
    <line x1="52" x2="48" y1="43.8839" y2="39.8839" fill="none" stroke="#000000" stroke-linecap="round" stroke-linejoin="round" stroke-miterlimit="10" stroke-width="2"></line>
  </g>
  <g id="color">
    
    <path fill="#FFFFFF" d="M33.5,32.31c0,3.59-2.914,6.5-6.5,6.5s-6.5-2.91-6.5-6.5c0-3.586,2.914-6.5,6.5-6.5S33.5,28.724,33.5,32.31"></path>
    <path fill="#FFFFFF" d="M51.5,32.31c0,3.59-2.914,6.5-6.5,6.5s-6.5-2.91-6.5-6.5c0-3.586,2.914-6.5,6.5-6.5S51.5,28.724,51.5,32.31"></path>
    <line x1="18" x2="20" y1="42.5532" y2="40.5532" fill="none" stroke="#EA5A47" stroke-linecap="round" stroke-linejoin="round" stroke-miterlimit="10" stroke-width="2"></line>
    
    <line x1="54" x2="52" y1="42.5532" y2="40.5532" fill="none" stroke="#EA5A47" stroke-linecap="round" stroke-linejoin="round" stroke-miterlimit="10" stroke-width="2"></line>
    
  </g>
  <g id="line">
    <path d="M29.56,32.43c0,1.411-1.146,2.556-2.556,2.556s-2.556-1.144-2.556-2.556c0-1.41,1.146-2.556,2.556-2.556 S29.56,31.02,29.56,32.43"></path>
    <path d="M47.56,32.43c0,1.411-1.146,2.556-2.556,2.556s-2.556-1.144-2.556-2.556c0-1.41,1.146-2.556,2.556-2.556 S47.56,31.02,47.56,32.43"></path>
    
    <path fill="none" stroke="#000000" stroke-miterlimit="10" stroke-width="2" d="M33.5,32.43c0,3.59-2.914,6.5-6.5,6.5 s-6.5-2.91-6.5-6.5c0-3.586,2.914-6.5,6.5-6.5S33.5,28.844,33.5,32.43"></path>
    <path fill="none" stroke="#000000" stroke-miterlimit="10" stroke-width="2" d="M51.5,32.43c0,3.59-2.914,6.5-6.5,6.5 s-6.5-2.91-6.5-6.5c0-3.586,2.914-6.5,6.5-6.5S51.5,28.844,51.5,32.43"></path>
  </g>
</svg>
