<svg id="emoji" viewBox="0 0 72 72" xmlns="http://www.w3.org/2000/svg">
  <g id="line">
    <path d="M44.8748,24.0258h-2.6162c-0.3564,0-0.6855-0.1899-0.8652-0.498c-0.1787-0.3086-0.1797-0.6885-0.0029-0.998l1.7607-3.082 h-0.8926c-0.5527,0-1-0.4478-1-1s0.4473-1,1-1h2.6162c0.3564,0,0.6855,0.1899,0.8652,0.498 c0.1787,0.3086,0.1797,0.6885,0.0029,0.998l-1.7607,3.082h0.8926c0.5527,0,1,0.4478,1,1S45.4275,24.0258,44.8748,24.0258z"></path>
    <path d="M51.0184,20.0258h-3.7598c-0.3564,0-0.6855-0.1899-0.8652-0.498c-0.1787-0.3086-0.1797-0.6885-0.0029-0.998l2.9043-5.082 h-2.0361c-0.5527,0-1-0.4478-1-1s0.4473-1,1-1h3.7598c0.3564,0,0.6855,0.1899,0.8652,0.498 c0.1787,0.3086,0.1797,0.6885,0.0029,0.998l-2.9044,5.082h2.0361c0.5527,0,1,0.4478,1,1S51.5711,20.0258,51.0184,20.0258z"></path>
    <path d="M59.1609,25.0258h-4.9023c-0.3564,0-0.6855-0.1899-0.8652-0.498c-0.1787-0.3086-0.1797-0.6885-0.0029-0.998l4.0469-7.082 h-3.1787c-0.5527,0-1-0.4478-1-1s0.4473-1,1-1h4.9023c0.3564,0,0.6855,0.1899,0.8652,0.498 c0.1787,0.3086,0.1797,0.6885,0.0029,0.998l-4.0469,7.082h3.1787c0.5527,0,1,0.4478,1,1S59.7137,25.0258,59.1609,25.0258z"></path>
  </g>
  <g id="color-foreground">
    <path fill="#61B2E4" stroke="#61B2E4" stroke-miterlimit="10" stroke-width="0.1" d="M44.8748,24.0258h-2.6162 c-0.3564,0-0.6855-0.1899-0.8652-0.498c-0.1787-0.3086-0.1797-0.6885-0.0029-0.998l1.7607-3.082h-0.8926c-0.5527,0-1-0.4478-1-1 s0.4473-1,1-1h2.6162c0.3564,0,0.6855,0.1899,0.8652,0.498c0.1787,0.3086,0.1797,0.6885,0.0029,0.998l-1.7607,3.082h0.8926 c0.5527,0,1,0.4478,1,1S45.4275,24.0258,44.8748,24.0258z"></path>
    <path fill="#61B2E4" stroke="#61B2E4" stroke-miterlimit="10" stroke-width="0.1" d="M51.0184,20.0258h-3.7598 c-0.3564,0-0.6855-0.1899-0.8652-0.498c-0.1787-0.3086-0.1797-0.6885-0.0029-0.998l2.9043-5.082h-2.0361c-0.5527,0-1-0.4478-1-1 s0.4473-1,1-1h3.7598c0.3564,0,0.6855,0.1899,0.8652,0.498c0.1787,0.3086,0.1797,0.6885,0.0029,0.998l-2.9044,5.082h2.0361 c0.5527,0,1,0.4478,1,1S51.5711,20.0258,51.0184,20.0258z"></path>
    <path fill="#61B2E4" stroke="#61B2E4" stroke-miterlimit="10" stroke-width="0.1" d="M59.1609,25.0258h-4.9023 c-0.3564,0-0.6855-0.1899-0.8652-0.498c-0.1787-0.3086-0.1797-0.6885-0.0029-0.998l4.0469-7.082h-3.1787c-0.5527,0-1-0.4478-1-1 s0.4473-1,1-1h4.9023c0.3564,0,0.6855,0.1899,0.8652,0.498c0.1787,0.3086,0.1797,0.6885,0.0029,0.998l-4.0469,7.082h3.1787 c0.5527,0,1,0.4478,1,1S59.7137,25.0258,59.1609,25.0258z"></path>
  </g>
</svg>
