<svg id="emoji" viewBox="0 0 72 72" xmlns="http://www.w3.org/2000/svg">
  <g id="color">
    <path transform="translate(0 0)" fill="#d0cfce" d="M32.4,25.2a4.9126,4.9126,0,0,0,4.7-5.1,4.8278,4.8278,0,0,0-4.3-4.6h0a3.8281,3.8281,0,0,0-3.6-3.8A3.4576,3.4576,0,0,0,25.9,14a4.7026,4.7026,0,0,0-7,4,4.0126,4.0126,0,0,0-1.5-.3,3.8053,3.8053,0,0,0,0,7.6h15Z"></path>
    <path transform="translate(0 0)" fill="#fcea2b" d="M36,17.6A18.4,18.4,0,1,0,54.4,36,18.3516,18.3516,0,0,0,36,17.6Z"></path>
    <path transform="translate(0 0)" fill="#fff" d="M38.2,27.1a5.5488,5.5488,0,0,1-5.5-5.5,5.61,5.61,0,0,1,5-5.5h0A4.2682,4.2682,0,0,1,42,11.8a4.1361,4.1361,0,0,1,3.9,2.6,5.432,5.432,0,0,1,8.2,4.5A4.21,4.21,0,0,1,59.7,21a4.2965,4.2965,0,0,1-2.1,5.6,3.9222,3.9222,0,0,1-1.8.4H38.2Z"></path>
  </g>
  <g id="line">
    <path transform="translate(0 0)" fill="none" stroke="#000" stroke-linecap="round" stroke-linejoin="round" stroke-width="2" d="M31.9,15.3a3.4953,3.4953,0,0,0-6.7-1.4,4.46,4.46,0,0,0-6.1,1.7,6.6371,6.6371,0,0,0-.6,2,3.4677,3.4677,0,1,0-2.9,6.3,3.194,3.194,0,0,0,1.4.3"></path>
    <path transform="translate(0 0)" fill="none" stroke="#000" stroke-linecap="round" stroke-linejoin="round" stroke-width="2" d="M38.2,27.1a5.5488,5.5488,0,0,1-5.5-5.5,5.61,5.61,0,0,1,5-5.5h0A4.2682,4.2682,0,0,1,42,11.8a4.1361,4.1361,0,0,1,3.9,2.6,5.432,5.432,0,0,1,8.2,4.5A4.21,4.21,0,0,1,59.7,21a4.2965,4.2965,0,0,1-2.1,5.6,3.9222,3.9222,0,0,1-1.8.4H38.2Z"></path>
  </g>
</svg>
