<svg id="emoji" viewBox="0 0 72 72" xmlns="http://www.w3.org/2000/svg">
  <g id="color">
    
    <path fill="#fff" d="m33.25,30.85c0,3.452-2.802,6.25-6.25,6.25s-6.25-2.798-6.25-6.25c0-3.448,2.802-6.25,6.25-6.25s6.25,2.802,6.25,6.25"></path>
    <path fill="#fff" d="m51.25,30.85c0,3.452-2.802,6.25-6.25,6.25s-6.25-2.798-6.25-6.25c0-3.448,2.802-6.25,6.25-6.25s6.25,2.802,6.25,6.25"></path>
  </g>
  <g id="line">
    
    <path fill="none" stroke="#000" stroke-miterlimit="10" stroke-width="2" d="m33.25,31.46c0,3.452-2.802,6.25-6.25,6.25s-6.25-2.798-6.25-6.25c0-3.448,2.802-6.25,6.25-6.25s6.25,2.802,6.25,6.25"></path>
    <path d="m29,31.46c0,1.104-.8965,2-2,2s-2-.8955-2-2,.8965-2,2-2,2,.8965,2,2"></path>
    <path fill="none" stroke="#000" stroke-miterlimit="10" stroke-width="2" d="m51.25,31.46c0,3.452-2.802,6.25-6.25,6.25s-6.25-2.798-6.25-6.25c0-3.448,2.802-6.25,6.25-6.25s6.25,2.802,6.25,6.25"></path>
    <path d="m47,31.46c0,1.104-.8965,2-2,2s-2-.8955-2-2,.8965-2,2-2,2,.8965,2,2"></path>
  </g>
</svg>
