<svg id="emoji" viewBox="0 0 72 72" xmlns="http://www.w3.org/2000/svg">
  <g id="color">
    
    <path fill="#92D3F5" d="M9.2458,27.724c-0.2538-1.041-0.087-2.1185,0.4698-3.0339c1.8322-3.0136,6.4342-4.1651,6.629-4.2126 c0.4053-0.0988,0.8134,0.1495,0.9122,0.5546c0.0476,0.1952,1.1432,4.8107-0.6888,7.8253l0.0001,0.0004 c-1.1491,1.888-3.6208,2.4902-5.5094,1.3416C10.1434,29.6445,9.4996,28.765,9.2458,27.724z"></path>
  </g>
  <g id="line">
    <path d="M30,31c0,1.6568-1.3448,3-3,3c-1.6553,0-3-1.3433-3-3c0-1.6552,1.3447-3,3-3C28.6552,28,30,29.3448,30,31"></path>
    <path d="M48,31c0,1.6568-1.3447,3-3,3s-3-1.3433-3-3c0-1.6552,1.3447-3,3-3S48,29.3448,48,31"></path>
    <path fill="none" stroke="#000000" stroke-miterlimit="10" stroke-width="2" d="M9.2458,27.724 c-0.2538-1.041-0.087-2.1185,0.4698-3.0339c1.8322-3.0136,6.4342-4.1651,6.629-4.2126c0.4053-0.0988,0.8134,0.1495,0.9122,0.5546 c0.0476,0.1952,1.1432,4.8107-0.6888,7.8253l0.0001,0.0004c-1.1491,1.888-3.6208,2.4902-5.5094,1.3416 C10.1434,29.6445,9.4996,28.765,9.2458,27.724z"></path>
    
  </g>
</svg>
