<svg id="emoji" viewBox="0 0 72 72" xmlns="http://www.w3.org/2000/svg">
  <g id="line">
    
    <path fill="none" stroke="#000000" stroke-linecap="round" stroke-linejoin="round" stroke-miterlimit="10" stroke-width="2" d="M19.074,30.4073c0,0-0.953,8.5508,6.8608,7.9185c2.6197-0.212,7.8164-0.6507,7.867-8.3427 c0.0046-0.6979-0.0078-1.5989-0.8108-2.6298c-1.0647-1.3669-3.5716-1.9711-9.9446-1.422 C23.0465,25.9314,19.6002,25.8323,19.074,30.4073z"></path>
    <polyline fill="none" stroke="#000000" stroke-linecap="round" stroke-linejoin="round" stroke-miterlimit="10" stroke-width="2" points="19.1447,29.8742 18.7117,26.5029 22.5446,25.9752"></polyline>
    <path fill="none" stroke="#000000" stroke-linecap="round" stroke-linejoin="round" stroke-miterlimit="10" stroke-width="2" d="M52.9325,30.4073c0,0,0.953,8.5508-6.8608,7.9185c-2.6197-0.212-7.8164-0.6507-7.867-8.3427 c-0.0046-0.6979,0.0078-1.5989,0.8108-2.6298c1.0647-1.3669,3.5716-1.9711,9.9446-1.422 C48.9601,25.9314,52.4064,25.8323,52.9325,30.4073z"></path>
    <path fill="none" stroke="#000000" stroke-linecap="round" stroke-linejoin="round" stroke-miterlimit="10" stroke-width="2" d="M31.6962,26.3593c0,0,4.1241,2.5339,8.6569,0"></path>
    <path fill="none" stroke="#000000" stroke-linecap="round" stroke-linejoin="round" stroke-miterlimit="10" stroke-width="2" d="M33.8022,31.2614c0,0,2.1275-3.7509,4.383,0"></path>
    <polyline fill="none" stroke="#000000" stroke-linecap="round" stroke-linejoin="round" stroke-miterlimit="10" stroke-width="2" points="52.8552,29.8767 53.2883,26.5054 49.4554,25.9777"></polyline>
    <path fill="none" stroke="#000000" stroke-linecap="round" stroke-linejoin="round" stroke-miterlimit="10" stroke-width="2" d="M34.1463,29.9706c0,0,1.7954-3.7509,3.6988,0"></path>
  </g>
</svg>
