<svg id="emoji" viewBox="0 0 72 72" version="1.1" xmlns="http://www.w3.org/2000/svg">
  <g id="color">
    
    <path fill="#FCEA2B" d="M19.1,62.3c-0.3-1.2-0.4-2.4-0.3-3.6c0.2-1.1,2.3-6.5,2.7-7.3s1.4-4.5,2.4-4.8c1-0.3,1.2,0.1,1.1,0.7 S24.4,55,24.4,55l9.4-2.8c0,0,7.7-1.9,7.9-1c2.1,2-5.4,4.5-7.5,4.4c0,0,1.1,0.6,0.9,1.3s-0.8,1.2-1,1.2s0.5,0.5,0.6,1.4 c0.9,1.8-2.8,2.3-2.8,2.3c1.3-0.2,3.3,2.1,0.1,2.7c-1,0.3-4.8,1.4-4.8,1.4s-3.3,1.2-5.2-0.1C20.8,65,19.7,63.8,19.1,62.3z"></path>
  </g>
  <g id="line">
    <path fill="none" stroke="#000000" stroke-linecap="round" stroke-linejoin="round" stroke-width="2" d="M19.7,56.7c-1,1.6-1.2,3.7-0.5,5.5c1.1,3.3,4,5.2,7.2,4.2l4.9-1.4l1-0.3c0.8-0.2,1.3-1.1,1.1-1.8l0,0 c-0.2-0.5-0.6-0.9-1.2-1l1.2-0.3c0.8-0.2,1.3-1.1,1.1-1.8c-0.2-0.5-0.6-1-1.2-1.1l1.2-0.4c0.8-0.2,1.3-1.1,1.1-1.8 c-0.1-0.5-0.5-0.9-1-1l6.4-1.9c0.8-0.2,1.3-1.1,1.1-1.8s-1.1-1.3-1.8-1.1l0,0l-10.2,3l-5.1,1.5l0.6-7.8c0.1-0.9-1.5-1.2-2.1,0.2 L19.7,56.7z"></path>
  </g>
</svg>
