<svg id="emoji" viewBox="0 0 72 72" xmlns="http://www.w3.org/2000/svg">
  <g id="color">
    
    <path fill="#9B9B9A" d="M58.2965,54.1981l-1.9462,1.9462c-0.9381,0.9381-2.459,0.9381-3.397,0l-4.8606-4.8606 c-0.9381-0.9381-0.9381-2.459,0-3.397l1.9462-1.9462c0.9381-0.9381,2.459-0.9381,3.397,0l4.8606,4.8606 C59.2345,51.7391,59.2345,53.26,58.2965,54.1981z"></path>
    
  </g>
  <g id="line">
    <path fill="none" stroke="#000000" stroke-linecap="round" stroke-miterlimit="10" stroke-width="2" d="M50.9177,45.3276 c0.8493-0.3076,1.8373-0.121,2.5182,0.56l4.8606,4.8606c0.938,0.938,0.938,2.4589,0,3.397l-1.9462,1.9462 c-0.9381,0.9381-2.459,0.9381-3.397,0l-4.8606-4.8606c-0.6461-0.6461-0.8472-1.5687-0.6033-2.3869"></path>
  </g>
</svg>
