<svg id="emoji" viewBox="0 0 72 72" xmlns="http://www.w3.org/2000/svg">
  
  <g id="color">
    
    <path fill="#FFFFFF" d="M40,49.2l-0.7-0.8c-0.7-0.9-0.6-2.2,0.2-2.9l17-14.4c0.9-0.7,2.2-0.6,2.9,0.2l0.7,0.8 c0.7,0.9,0.6,2.2-0.2,2.9l-17,14.4C42.1,50.2,40.8,50.1,40,49.2z"></path>
    <path fill="#EA5A47" d="M39.8,49l-0.2-0.3C39,48,39.1,47,39.8,46.4l8.6-7.3c0.7-0.6,1.7-0.5,2.3,0.2l0.2,0.3 c0.6,0.7,0.5,1.7-0.2,2.3l-8.6,7.3C41.4,49.8,40.4,49.7,39.8,49z"></path>
  </g>
  <g id="line">
    <path fill="none" stroke="#000000" stroke-miterlimit="10" d="M40,49.3l-0.7-0.8c-0.7-0.9-0.6-2.2,0.2-2.9l17-14.4 c0.9-0.7,2.2-0.6,2.9,0.2l0.7,0.8c0.7,0.9,0.6,2.2-0.2,2.9l-17,14.4C42.1,50.3,40.8,50.2,40,49.3z"></path>
    <path fill="none" stroke="#000000" stroke-linecap="round" stroke-linejoin="round" stroke-miterlimit="10" stroke-width="2" d="M29.6,50.7c4.3-2.3,9.1-2.4,12.8,0"></path>
    <path fill="none" stroke="#000000" stroke-miterlimit="10" stroke-width="2" d="M40,49.3l-0.7-0.8c-0.7-0.9-0.6-2.2,0.2-2.9 l17-14.4c0.9-0.7,2.2-0.6,2.9,0.2l0.7,0.8c0.7,0.9,0.6,2.2-0.2,2.9l-17,14.4C42.1,50.3,40.8,50.2,40,49.3z"></path>
  </g>
</svg>
