<svg id="emoji" viewBox="0 0 72 72" xmlns="http://www.w3.org/2000/svg">
  <g id="color">
    
    <path fill="#fff" d="M30.498,53.374c-4.296-1.49-6.4614-4.8011-6.4614-8.6835h.0939s12.1375,3.0627,23.683.066l.1606-.066a8.881,8.881,0,0,1-6.4152,8.6842"></path>
    <path fill="#b1cc33" d="M40.5383,49.2888s1.518,8.819-1.0644,10.9394l.0255-.0218a4.8842,4.8842,0,0,1-7.0087,0c-2.5824-2.12-1.0644-10.9394-1.0644-10.9394"></path>
  </g>
  <g id="line">
    <path fill="none" stroke="#000" stroke-linecap="round" stroke-linejoin="round" stroke-width="2" d="M30.498,53.374c-4.296-1.49-6.4614-4.8011-6.4614-8.6835h.0939s12.1375,3.0627,23.683.066l.1606-.066a8.881,8.881,0,0,1-6.4152,8.6842"></path>
    <path fill="none" stroke="#000" stroke-linecap="round" stroke-linejoin="round" stroke-width="2" d="M40.5383,49.2888s1.518,8.819-1.0644,10.9394l.0255-.0218a4.8842,4.8842,0,0,1-7.0087,0c-2.5824-2.12-1.0644-10.9394-1.0644-10.9394"></path>
    <path fill="none" stroke="#000" stroke-linecap="round" stroke-linejoin="round" stroke-width="2" d="M37.8973,53.146A1.9352,1.9352,0,0,0,35.9467,51.88h0a1.6267,1.6267,0,1,0,0,3.1708l-.04.0059a1.6267,1.6267,0,1,1,0,3.1708h0a1.9353,1.9353,0,0,1-1.9507-1.2659"></path>
    <line x1="35.9264" x2="35.9264" y1="51.8801" y2="50.3686" fill="none" stroke="#000" stroke-linecap="round" stroke-linejoin="round" stroke-width="2"></line>
    <line x1="35.9264" x2="35.9264" y1="59.739" y2="58.2276" fill="none" stroke="#000" stroke-linecap="round" stroke-linejoin="round" stroke-width="2"></line>
  </g>
</svg>
