<svg id="emoji" viewBox="0 0 72 72" xmlns="http://www.w3.org/2000/svg">
  <g id="line">
    <line x1="26.4723" x2="26.4723" y1="42.0256" y2="45.3286" fill="none" stroke="#000000" stroke-linecap="round" stroke-linejoin="round" stroke-miterlimit="10" stroke-width="2"></line>
    
    <line x1="30.3245" x2="30.3245" y1="42.0256" y2="45.3286" fill="none" stroke="#000000" stroke-linecap="round" stroke-linejoin="round" stroke-miterlimit="10" stroke-width="2"></line>
    <line x1="41.8439" x2="41.8439" y1="42.0256" y2="45.3286" fill="none" stroke="#000000" stroke-linecap="round" stroke-linejoin="round" stroke-miterlimit="10" stroke-width="2"></line>
    
    <line x1="45.7003" x2="45.7003" y1="42.0256" y2="45.3286" fill="none" stroke="#000000" stroke-linecap="round" stroke-linejoin="round" stroke-miterlimit="10" stroke-width="2"></line>
    <path d="M30,31c0,1.6568-1.3448,3-3,3c-1.6553,0-3-1.3433-3-3c0-1.6552,1.3447-3,3-3C28.6552,28,30,29.3448,30,31"></path>
    <path d="M48,31c0,1.6568-1.3447,3-3,3s-3-1.3433-3-3c0-1.6552,1.3447-3,3-3S48,29.3448,48,31"></path>
  </g>
</svg>
