<svg id="emoji" viewBox="0 0 72 72" xmlns="http://www.w3.org/2000/svg">
  <g id="color">
    <path fill="#FCEA2B" d="M37.4298,44.1622c0,0,8.7363-0.0809,12.075,0.5893c3.3387,0.6701,6.7322,2.0667,9.1412,0.9499 c1.1362-0.5267,1.6476-1.6404,1.7222-2.7085c0.1014-1.0659-0.2206-2.2484-1.255-2.9542c-2.1935-1.4965-5.7742-0.6235-9.1776-0.5096 s-12.0084-1.3976-12.0084-1.3976"/>
  </g>
  <g id="line">
    <path fill="none" stroke="#000000" stroke-linecap="round" stroke-linejoin="round" stroke-miterlimit="10" stroke-width="2" d="M37.4298,44.1622c0,0,8.7363-0.0809,12.075,0.5893c3.3387,0.6701,6.7322,2.0667,9.1412,0.9499 c1.1362-0.5267,1.6476-1.6404,1.7222-2.7085c0.1014-1.0659-0.2206-2.2484-1.255-2.9542c-2.1935-1.4965-5.7742-0.6235-9.1776-0.5096 s-12.0084-1.3976-12.0084-1.3976"/>
  </g>
</svg>
