<svg id="emoji" viewBox="0 0 72 72" xmlns="http://www.w3.org/2000/svg">
  <g id="line">
    <path fill="none" stroke="#000000" stroke-linecap="round" stroke-linejoin="round" stroke-miterlimit="10" stroke-width="2" d="M27.2671,22.3665c-0.2383,1.5436-1.039,2.9427-2.2496,3.9289c-1.1065,1.1138-2.5889,1.7724-4.156,1.8514"></path>
    <path fill="none" stroke="#000000" stroke-linecap="round" stroke-linejoin="round" stroke-miterlimit="10" stroke-width="2" d="M44.7329,22.3665c0.2383,1.5436,1.039,2.9427,2.2496,3.9289c1.1065,1.1138,2.5889,1.7724,4.156,1.8514"></path>
    <path d="M30,33c0,1.6568-1.3448,3-3,3c-1.6553,0-3-1.3433-3-3c0-1.6552,1.3447-3,3-3C28.6552,30,30,31.3448,30,33"></path>
    <path d="M48,33c0,1.6568-1.3447,3-3,3s-3-1.3433-3-3c0-1.6552,1.3447-3,3-3S48,31.3448,48,33"></path>
  </g>
</svg>
