<svg id="emoji" viewBox="0 0 72 72" xmlns="http://www.w3.org/2000/svg">
  <g id="line-supplement">
    <path d="M36.2846,57.9425c2.897,0,5.245-2.927,5.245-6.538s-2.348-6.538-5.245-6.538-5.245,2.927-5.245,6.538S33.3876,57.9425,36.2846,57.9425Z"></path>
  </g>
  <g id="color">
    
    <path fill="#fcea2b" d="M36.2846,62.0125a23.004,23.004,0,0,0,18.936-36.06,9.4731,9.4731,0,0,1-4.168,1.16c-.2995.0171-.5418.1467-.5681.3069-.2753,1.678-2.929,2.994-6.1609,2.994a10.6158,10.6158,0,0,1-2.348-.2412,1.0481,1.0481,0,0,0-.7575.1169,14.9416,14.9416,0,0,1-8.031,2.036c-5.003,0-9.235-1.889-10.15-4.402-.06-.1643-.3137-.2817-.6266-.2943a10.6483,10.6483,0,0,1-5.199-1.472,22.9993,22.9993,0,0,0,19.075,35.85Z"></path>
    <path d="M36.2846,57.9425c2.897,0,5.245-2.927,5.245-6.538s-2.348-6.538-5.245-6.538-5.245,2.927-5.245,6.538S33.3876,57.9425,36.2846,57.9425Z"></path>
    
  </g>
  <g id="line">
    <path fill="none" stroke="#000" stroke-linecap="round" stroke-linejoin="round" stroke-width="2" d="M36.2846,62.0125a23.004,23.004,0,0,0,18.936-36.06,9.4745,9.4745,0,0,1-4.168,1.16c-.2995.0171-.5418.1467-.5681.3069-.2753,1.678-2.929,2.994-6.1609,2.994a10.6158,10.6158,0,0,1-2.348-.2412,1.0481,1.0481,0,0,0-.7575.1169,14.9416,14.9416,0,0,1-8.031,2.036c-5.003,0-9.235-1.889-10.15-4.402-.06-.1643-.3137-.2817-.6266-.2943a10.6483,10.6483,0,0,1-5.199-1.472,22.9993,22.9993,0,0,0,19.075,35.85Z"></path>
    <path fill="none" stroke="#000" stroke-linecap="round" stroke-linejoin="round" stroke-width="2" d="M36.2846,57.9425c2.897,0,5.245-2.927,5.245-6.538s-2.348-6.538-5.245-6.538-5.245,2.927-5.245,6.538S33.3876,57.9425,36.2846,57.9425Z"></path>
  </g>
</svg>
