<svg id="emoji" viewBox="0 0 72 72" xmlns="http://www.w3.org/2000/svg">
  <g id="color">
    <path fill="#D22F27" d="M13.8451,27.9329c0,0-2.047-1.4682-0.6019-3.1236c0,0-2.2788-2.0129-0.4281-3.9039 c0,0-1.2382-4.0732,2.1382-4.309c0,0-0.3899-4.0721,4.079-3.5985c0,0,2.5018-1.8015,4.3561,0.2489c0,0,2.5324-1.6079,3.8427,0.4026"></path>
    <path fill="#D22F27" d="M58.1549,27.9329c0,0,2.047-1.4682,0.6019-3.1236c0,0,2.2788-2.0129,0.4281-3.9039 c0,0,1.2382-4.0732-2.1382-4.309c0,0,0.3899-4.0721-4.079-3.5985c0,0-2.5018-1.8015-4.3561,0.2489c0,0-2.5324-1.6079-3.8427,0.4026"></path>
  </g>
  <g id="line">
    <path fill="none" stroke="#000000" stroke-linecap="round" stroke-linejoin="round" stroke-miterlimit="10" stroke-width="2" d="M13.8451,27.9329c0,0-2.047-1.4682-0.6019-3.1236c0,0-2.2788-2.0129-0.4281-3.9039c0,0-1.2382-4.0732,2.1382-4.309 c0,0-0.3899-4.0721,4.079-3.5985c0,0,2.5018-1.8015,4.3561,0.2489c0,0,2.5324-1.6079,3.8427,0.4026"></path>
    
    <path fill="none" stroke="#000000" stroke-linecap="round" stroke-linejoin="round" stroke-miterlimit="10" stroke-width="2" d="M58.1549,27.9329c0,0,2.047-1.4682,0.6019-3.1236c0,0,2.2788-2.0129,0.4281-3.9039c0,0,1.2382-4.0732-2.1382-4.309 c0,0,0.3899-4.0721-4.079-3.5985c0,0-2.5018-1.8015-4.3561,0.2489c0,0-2.5324-1.6079-3.8427,0.4026"></path>
  </g>
  
</svg>
