<svg id="emoji" viewBox="0 0 72 72" xmlns="http://www.w3.org/2000/svg">
  <g id="line">
    <ellipse cx="27.7711" cy="30.818" rx="3.5" ry="6.3045" fill="none" stroke="#000000" stroke-miterlimit="10" stroke-width="2"></ellipse>
    <ellipse cx="44.2289" cy="30.8216" rx="3.5" ry="6.3045" fill="none" stroke="#000000" stroke-miterlimit="10" stroke-width="2"></ellipse>
    
  </g>
  <g id="color-foreground">
    <ellipse cx="27.7711" cy="30.818" rx="3.5" ry="6.3045" fill="none" stroke="#92D3F5" stroke-miterlimit="10" stroke-width="2.1"></ellipse>
    <ellipse cx="44.2289" cy="30.8216" rx="3.5" ry="6.3045" fill="none" stroke="#92D3F5" stroke-miterlimit="10" stroke-width="2.1"></ellipse>
    <path d="M30.2676,30.816c0,3.04-1.32,5.31-2.5,5.31s-2.5-2.27-2.5-5.31c0-3.03,1.32-5.3,2.5-5.3S30.2676,27.7861,30.2676,30.816z"></path>
    <path d="M46.7276,30.8261c0,3.03-1.32,5.3-2.5,5.3s-2.5-2.27-2.5-5.3c0-3.04,1.32-5.31,2.5-5.31S46.7276,27.7861,46.7276,30.8261z"></path>
    
  </g>
</svg>
