<svg id="emoji" viewBox="0 0 72 72" xmlns="http://www.w3.org/2000/svg">
  <g id="line-supplement">
    <path d="M36.2846,57.9425c2.897,0,5.245-2.927,5.245-6.538s-2.348-6.538-5.245-6.538-5.245,2.927-5.245,6.538S33.3876,57.9425,36.2846,57.9425Z"></path>
  </g>
  <g id="color">
    
    <path d="M36.2846,57.9425c2.897,0,5.245-2.927,5.245-6.538s-2.348-6.538-5.245-6.538-5.245,2.927-5.245,6.538S33.3876,57.9425,36.2846,57.9425Z"></path>
    
  </g>
  <g id="line">
    <path fill="none" stroke="#000" stroke-linecap="round" stroke-linejoin="round" stroke-width="2" d="M36.2846,57.9425c2.897,0,5.245-2.927,5.245-6.538s-2.348-6.538-5.245-6.538-5.245,2.927-5.245,6.538S33.3876,57.9425,36.2846,57.9425Z"></path>
  </g>
</svg>
