<svg id="emoji" viewBox="0 0 72 72" xmlns="http://www.w3.org/2000/svg">
  <g id="color">
    <path fill="#D22F27" d="M49.8069,46.5463c0,0-1.58,8.43-13.81,8.76c-12.18-0.44-13.81-8.76-13.81-8.76 c-0.46-1.73-1.2401-5.76,2.28-3.81c2.7,1.5,5.38,4.37,11.53,4.55c6.16-0.18,8.83-3.05,11.53-4.55 C51.0469,40.7863,50.2769,44.8163,49.8069,46.5463z"></path>
    <path fill="#FFFFFF" d="M35.9981,52.7344c-6.0618,0-9.9298-3.3099-10.9113-4.9147s0.5505-1.1552,0.866-1.003 c2.3137,1.1164,4.0412,2.6979,10.0453,2.9036 M35.9981,52.7344c6.0618,0,9.9298-3.3099,10.9113-4.9147s-0.5505-1.1552-0.866-1.003 c-2.3138,1.1164-4.0412,2.6979-10.0453,2.9036"></path>
  </g>
  <g id="line">
    <path fill="none" stroke="#000000" stroke-linecap="round" stroke-linejoin="round" stroke-miterlimit="10" stroke-width="2" d="M49.8078,46.5463c0,0-1.58,8.43-13.81,8.76c-12.18-0.44-13.81-8.76-13.81-8.76c-0.46-1.73-1.2401-5.76,2.28-3.81 c2.7,1.5,5.38,4.37,11.53,4.55c6.16-0.18,8.83-3.05,11.53-4.55C51.0478,40.7863,50.2778,44.8163,49.8078,46.5463z"></path>
  </g>
  
</svg>
