<svg id="emoji" viewBox="0 0 72 72" xmlns="http://www.w3.org/2000/svg">
  <g id="color">
    
    <path fill="#fff" d="m31.76 31.17c0 2.464-2 4.463-4.463 4.463s-4.463-1.998-4.463-4.463c0-2.462 2-4.463 4.463-4.463s4.463 2 4.463 4.463z"></path>
    <path fill="#fff" d="m50.84 32.72c0 3.364-2.73 6.091-6.091 6.091s-6.091-2.727-6.091-6.091c0-3.361 2.73-6.091 6.091-6.091s6.091 2.73 6.091 6.091z"></path>
  </g>
  <g id="line">
    
    <path fill="none" stroke="#000" stroke-miterlimit="10" stroke-width="2" d="m31.96 31.29c0 2.464-2 4.463-4.463 4.463s-4.463-1.998-4.463-4.463c0-2.462 2-4.463 4.463-4.463s4.463 2 4.463 4.463"></path>
    <path d="m28.52 32.3c0 1.104-0.8965 2-2 2s-2-0.8955-2-2c0-1.104 0.8965-2 2-2s2 0.8965 2 2"></path>
    <path fill="none" stroke="#000" stroke-miterlimit="10" stroke-width="2" d="m51.04 32.83c0 3.364-2.73 6.091-6.091 6.091s-6.091-2.727-6.091-6.091c0-3.361 2.73-6.091 6.091-6.091s6.091 2.73 6.091 6.091"></path>
    <path d="m49.04 32.1c0 1.508-1.224 2.73-2.73 2.73s-2.73-1.222-2.73-2.73c0-1.506 1.224-2.73 2.73-2.73s2.73 1.224 2.73 2.73"></path>
  </g>
</svg>
