<svg id="emoji" viewBox="0 0 72 72" xmlns="http://www.w3.org/2000/svg">
  <g id="color">
    
    <path fill="#FFFFFF" d="M8.9985,46.9816c0,0,16.1561,1.2359,24.9516-9.8598c0.6645-0.8383,1.9857-2.2668,3.8806-0.9725 c0,0,9.3223,7.9456-10.9712,28.6664c0,0,0.0158-4.8296-2.3762-4.3161c-4.3887,0.9421-12.0961,4.156-17.8809,1.6287 C6.6024,62.1283,20.7291,55.7915,8.9985,46.9816z"></path>
  </g>
  <g id="line">
    <polyline fill="none" stroke="#000000" stroke-linecap="round" stroke-linejoin="round" stroke-miterlimit="10" stroke-width="2" points="37.9293,50.0033 41.1293,51.0933 44.0793,46.2733 47.7093,49.1233 49.7693,46.7633"></polyline>
    <path fill="none" stroke="#000000" stroke-linecap="round" stroke-linejoin="round" stroke-miterlimit="10" stroke-width="2" d="M8.9985,46.9816c0,0,16.1561,1.2359,24.9516-9.8598c0.6645-0.8383,1.9857-2.2668,3.8806-0.9725c0,0,9.3223,7.9456-10.9712,28.6664 c0,0,0.0158-4.8296-2.3762-4.3161c-4.3887,0.9421-12.0961,4.156-17.8809,1.6287C6.6024,62.1283,20.7291,55.7915,8.9985,46.9816z"></path>
  </g>
</svg>
