<svg id="emoji" viewBox="0 0 72 72" xmlns="http://www.w3.org/2000/svg">
  <g id="color">
    
    <path fill="#6A462F" d="M36,23.3153c9.267-0.1288,15.3345-2.4577,15.3345-2.4577c2.5862,2.315,4.6453,5.2066,5.9755,8.4727 c0,0,10.5948-8.3618,2.2954-15.1052c0,0-4.0069-3.8593-10.0363,1.6462c0,0-3.8861,3.6651-13.5691,3.706 c-9.683-0.0409-13.5691-3.706-13.5691-3.706c-6.0294-5.5055-10.0363-1.6462-10.0363-1.6462 C4.0952,20.9685,14.69,29.3303,14.69,29.3303c1.3301-3.2661,3.3893-6.1577,5.9755-8.4727 C20.6655,20.8576,26.733,23.1866,36,23.3153z"></path>
    <path fill="#6A462F" d="M36,19.5773c6.0519-0.0256,9.767-1.4279,11.7566-2.5053c0,0-1.6341-0.5702-1.3904-2.7816 c0.0725-0.6576,0.3541-1.6277,0.7107-2.549c0.6391-1.651,0.1938-2.9689-4.1138-5.1348c0,0-2.0825-1.0407-2.8202-1.2739 C39.0599,4.9904,37.209,4.7124,36,6.1508c-1.209-1.4384-3.0599-1.1604-4.1428-0.8181c-0.7377,0.2332-2.8202,1.2739-2.8202,1.2739 c-4.3076,2.1659-4.7529,3.4838-4.1138,5.1348c0.3566,0.9213,0.6382,1.8914,0.7107,2.549c0.2437,2.2114-1.3904,2.7816-1.3904,2.7816 C26.233,18.1494,29.9481,19.5517,36,19.5773L36,19.5773z"></path>
  </g>
  <g id="line">
    <path fill="none" stroke="#000000" stroke-linecap="round" stroke-linejoin="round" stroke-miterlimit="10" stroke-width="2" d="M36,23.3153c9.267-0.1288,15.3345-2.4577,15.3345-2.4577c2.5862,2.315,4.6453,5.2066,5.9755,8.4727 c0,0,10.5948-8.3618,2.2954-15.1052c0,0-4.0069-3.8593-10.0363,1.6462c0,0-3.8861,3.6651-13.5691,3.706 c-9.683-0.0409-13.5691-3.706-13.5691-3.706c-6.0294-5.5055-10.0363-1.6462-10.0363-1.6462 C4.0952,20.9685,14.69,29.3303,14.69,29.3303c1.3301-3.2661,3.3893-6.1577,5.9755-8.4727 C20.6655,20.8576,26.733,23.1866,36,23.3153z"></path>
    <path fill="none" stroke="#000000" stroke-linecap="round" stroke-linejoin="round" stroke-miterlimit="10" stroke-width="2" d="M36,19.5773c6.0519-0.0256,9.767-1.4279,11.7566-2.5053c0,0-1.6341-0.5702-1.3904-2.7816c0.0725-0.6576,0.3541-1.6277,0.7107-2.549 c0.6391-1.651,0.1938-2.9689-4.1138-5.1348c0,0-2.0825-1.0407-2.8202-1.2739C39.0599,4.9904,37.209,4.7124,36,6.1508 c-1.209-1.4384-3.0599-1.1604-4.1428-0.8181c-0.7377,0.2332-2.8202,1.2739-2.8202,1.2739 c-4.3076,2.1659-4.7529,3.4838-4.1138,5.1348c0.3566,0.9213,0.6382,1.8914,0.7107,2.549c0.2437,2.2114-1.3904,2.7816-1.3904,2.7816 C26.233,18.1494,29.9481,19.5517,36,19.5773L36,19.5773z"></path>
  </g>
</svg>
