<svg id="emoji" viewBox="0 0 72 72" xmlns="http://www.w3.org/2000/svg">
  <g id="line">
    <path fill="none" stroke="#000" stroke-linecap="round" stroke-linejoin="round" stroke-width="2" d="M34,41.5c-1.4-0.2-2.8-0.7-4-1.5"></path>
    <path fill="none" stroke="#000" stroke-linecap="round" stroke-linejoin="round" stroke-width="2" d="M42.1,40c-1.3,0.7-2.7,1.2-4.2,1.5"></path>
    <path d="M30,27.8c0,1.7-1.3,3-3,3s-3-1.3-3-3s1.3-3,3-3l0,0c1.6,0,3,1.3,3,2.9C30,27.7,30,27.8,30,27.8"></path>
    <path d="M48,27.8c0,1.7-1.3,3-3,3s-3-1.3-3-3s1.3-3,3-3l0,0c1.6,0,3,1.3,3,2.9C48,27.7,48,27.8,48,27.8"></path>
    
  </g>
</svg>
