<svg id="emoji" viewBox="0 0 72 72" xmlns="http://www.w3.org/2000/svg">
  <g id="color">
    <path fill="#EA5A47" d="M49.7371,46.356c-1.79,4.27-6.35,7.23-13.7,7.23c-7.41,0-12.03-3.03-13.8-7.36 C24.2671,46.686,37.2171,49.3959,49.7371,46.356z"></path>
    <path fill="#FFFFFF" d="M50.6071,41.866c0,1.6-0.29,3.11-0.87,4.49c-12.52,3.04-25.47,0.33-27.5-0.13 c-0.55-1.35-0.83-2.82-0.83-4.36h0.11c0,0,14.81,3.59,28.89,0.07L50.6071,41.866z"></path>
  </g>
  <g id="line">
    <path fill="none" stroke="#000000" stroke-linecap="round" stroke-linejoin="round" stroke-miterlimit="10" stroke-width="2" d="M50.6071,41.866c0,1.6-0.29,3.11-0.87,4.49c-12.52,3.04-25.47,0.33-27.5-0.13c-0.55-1.35-0.83-2.82-0.83-4.36h0.11 c0,0,14.81,3.59,28.89,0.07L50.6071,41.866z"></path>
    <path fill="none" stroke="#000000" stroke-linejoin="round" stroke-miterlimit="10" stroke-width="2" d="M49.7371,46.356 c-1.79,4.27-6.35,7.23-13.7,7.23c-7.41,0-12.03-3.03-13.8-7.36C24.2671,46.686,37.2171,49.3959,49.7371,46.356z"></path>
    <path fill="none" stroke="#000000" stroke-linejoin="round" stroke-miterlimit="10" stroke-width="2" d="M50.2271,46.236 c-0.16,0.04-0.33,0.08-0.49,0.12"></path>
    <path fill="none" stroke="#000000" stroke-linejoin="round" stroke-miterlimit="10" stroke-width="2" d="M22.2371,46.226 c-0.19-0.05-0.28-0.07-0.28-0.07"></path>
    
    <path fill="none" stroke="#000000" stroke-linecap="round" stroke-linejoin="round" stroke-miterlimit="10" stroke-width="2" d="M13.1945,32.9954c-0.1283,0.9833-0.1944,1.9862-0.1944,3.0046c0,12.7022,10.2969,23,23,23c12.7022,0,23-10.2978,23-23 c0-1.0073-0.0648-1.9995-0.1903-2.9726"></path>
  </g>
</svg>
