<svg id="emoji" viewBox="0 0 72 72" xmlns="http://www.w3.org/2000/svg">
  <g id="color">
    
    <polygon fill="#F1B31C" points="25.0424,21.2371 33.0285,20.0364 29.1238,27.1056 32.7335,34.3298 24.8037,32.8007 19.0485,38.4662 18.0524,30.452 10.8857,26.7292 18.1999,23.3052 19.5258,15.3389"></polygon>
    <polygon fill="#F1B31C" points="46.8821,21.2371 38.896,20.0364 42.8007,27.1056 39.191,34.3298 47.1208,32.8007 52.876,38.4662 53.8721,30.452 61.0388,26.7292 53.7246,23.3052 52.3987,15.3389"></polygon>
  </g>
  <g id="line">
    <path fill="none" stroke="#000000" stroke-linecap="round" stroke-linejoin="round" stroke-miterlimit="10" stroke-width="2" d="M46.5542,15.5591C43.3932,13.9237,39.8045,13,36,13c-3.9546,0-7.676,0.9979-10.9261,2.7556 c-0.0502,0.0271-0.1002,0.0544-0.1501,0.0819"></path>
    
    <polygon fill="none" stroke="#000000" stroke-linecap="round" stroke-linejoin="round" stroke-miterlimit="10" stroke-width="2" points="25.1179,21.2371 33.104,20.0364 29.1993,27.1056 32.809,34.3298 24.8792,32.8007 19.124,38.4662 18.1279,30.452 10.9612,26.7292 18.2754,23.3052 19.6013,15.3389"></polygon>
    <polygon fill="none" stroke="#000000" stroke-linecap="round" stroke-linejoin="round" stroke-miterlimit="10" stroke-width="2" points="46.8821,21.2371 38.896,20.0364 42.8007,27.1056 39.191,34.3298 47.1208,32.8007 52.876,38.4662 53.8721,30.452 61.0388,26.7292 53.7246,23.3052 52.3987,15.3389"></polygon>
  </g>
</svg>
