<svg id="emoji" viewBox="0 0 72 72" xmlns="http://www.w3.org/2000/svg">
  <g id="color">
    <circle cx="36" cy="35.8" r="23" fill="none" stroke="#FCEA2B" stroke-miterlimit="10" stroke-width="1.8"></circle>
    <path fill="#FCEA2B" d="M46.8,56.3c11.3-6,15.7-20.2,9.7-31.5s-20-15.5-31.3-9.5s-15.5,20-9.5,31.3c2.3,4.2,5.8,7.7,10.1,9.8 c0,1.6,0.7,3.2,1.8,4.4c1.4,1.6,8.5,3.3,12.2-0.2C40.9,59.6,47.1,56.4,46.8,56.3z"></path>
  </g>
  <g id="line">
    <path fill="none" stroke="#000" stroke-linecap="round" stroke-linejoin="round" stroke-width="2" d="M51.5,52.8c9.4-8.6,10.1-23.1,1.5-32.5s-23.1-10.1-32.5-1.5S10.4,41.9,19,51.3c0.9,0.9,1.8,1.8,2.8,2.6"></path>
  </g>
</svg>
