<svg id="emoji" viewBox="0 0 72 72" xmlns="http://www.w3.org/2000/svg">
  <g id="color">
    <path fill="#92d3f5" d="M14.395,59.3977a4.2421,4.2421,0,0,1-2.6718-5.3736c1.3387-3.9837,6.6869-6.68,6.74-6.7068.0912.213,2.6369,5.4464,1.3052,9.41a4.2411,4.2411,0,0,1-5.3737,2.6707Z"></path>
  </g>
  <g id="line">
    <path fill="none" stroke="#000" stroke-linecap="round" stroke-linejoin="round" stroke-width="2" d="M55.2766,23.4489q-.0459-.0708-.0924-.1411A23.0031,23.0031,0,0,0,14.2153,43.3865c.0343.1023.1046.2972.14.3993"></path>
    <path fill="none" stroke="#000" stroke-linejoin="round" stroke-width="2" d="M14.395,59.3977a4.2421,4.2421,0,0,1-2.6718-5.3736c1.3387-3.9837,6.6869-6.68,6.74-6.7068.0912.213,2.6369,5.4464,1.3052,9.41a4.2411,4.2411,0,0,1-5.3737,2.6707Z"></path>
  </g>
</svg>
