<svg id="emoji" viewBox="0 0 72 72" xmlns="http://www.w3.org/2000/svg">
  <g id="color">
    
    <path fill="#fff" d="M51.58,34.554a11.5549,11.5549,0,0,1,1.2192,4.408C42.9625,47.2342,30.1775,50.5842,28.1236,51.08a11.4345,11.4345,0,0,1-2.6837-3.535l.0985-.0489S40.39,44.1243,51.4407,34.7013Z"></path>
    <path fill="#ea5a47" d="M52.799,38.962c.2974,4.6205-2.4688,9.3006-9.0418,12.5673C37.1215,54.8271,31.6358,54.17,28.1237,51.08,30.1775,50.5841,42.9626,47.234,52.799,38.962Z"></path>
  </g>
  <g id="line">
    
    <path fill="none" stroke="#000" stroke-linecap="round" stroke-linejoin="round" stroke-width="2" d="M25.0368,56.22a23.5311,23.5311,0,0,0,21.1991.3755A23.3425,23.3425,0,0,0,58.7218,39.5728"></path>
    <path fill="none" stroke="#000" stroke-linecap="round" stroke-linejoin="round" stroke-width="2" d="M51.58,34.554a11.5549,11.5549,0,0,1,1.2192,4.408C42.9625,47.2342,30.1775,50.5842,28.1236,51.08a11.4345,11.4345,0,0,1-2.6837-3.535l.0985-.0489S40.39,44.1243,51.4407,34.7013Z"></path>
    <path fill="none" stroke="#000" stroke-linecap="round" stroke-linejoin="round" stroke-width="2" d="M52.799,38.962c.2974,4.6205-2.4688,9.3006-9.0418,12.5673C37.1215,54.8271,31.6358,54.17,28.1237,51.08,30.1775,50.584,42.9625,47.2341,52.799,38.962Z"></path>
  </g>
</svg>
