<svg id="emoji" viewBox="0 0 72 72" xmlns="http://www.w3.org/2000/svg">
  <g id="line-supplement">
    <line x1="44.96" x2="44.96" y1="44.3741" y2="48.8453" fill="none" stroke="#000" stroke-linecap="round" stroke-linejoin="round" stroke-width="2"></line>
    <circle cx="44.9259" cy="51.6467" r="1"></circle>
    <line x1="28.1472" x2="27.0463" y1="44.0809" y2="51.3195" fill="none" stroke="#000" stroke-linecap="round" stroke-linejoin="round" stroke-width="2"></line>
    <line x1="31.3692" x2="30.2683" y1="44.0809" y2="51.3195" fill="none" stroke="#000" stroke-linecap="round" stroke-linejoin="round" stroke-width="2"></line>
    <line x1="25.7875" x2="33.1094" y1="46.0973" y2="46.0901" fill="none" stroke="#000" stroke-linecap="round" stroke-linejoin="round" stroke-width="2"></line>
    <line x1="25.3062" x2="32.628" y1="49.2832" y2="49.2759" fill="none" stroke="#000" stroke-linecap="round" stroke-linejoin="round" stroke-width="2"></line>
    <path fill="none" stroke="#000" stroke-linecap="round" stroke-linejoin="round" stroke-width="2" d="M40.2178,45.7188a1.5322,1.5322,0,0,0-1.4173-.8272,1.5714,1.5714,0,0,0-1.6771,1.3525s-.2434,1.3691,1.8124,1.4336c0,0,1.4607.2435,1.4607,1.4607,0,1.3337-1.4337,1.38-1.4337,1.38s-1.3707.1039-1.752-.732"></path>
    <line x1="38.8054" x2="38.8054" y1="44.6395" y2="43.6338" fill="none" stroke="#000" stroke-linecap="round" stroke-linejoin="round" stroke-width="2"></line>
    <line x1="38.8054" x2="38.8054" y1="51.7782" y2="50.7725" fill="none" stroke="#000" stroke-linecap="round" stroke-linejoin="round" stroke-width="2"></line>
  </g>
  <g id="color">
    
    <rect x="19.5181" y="41.076" rx="4.0768" fill="#3f3f3f"></rect>
    <line x1="44.96" x2="44.96" y1="44.3741" y2="48.8453" fill="none" stroke="#fff" stroke-linecap="round" stroke-linejoin="round" stroke-width="2"></line>
    <circle cx="44.9259" cy="51.6467" r="1" fill="#fff"></circle>
    <line x1="28.1472" x2="27.0463" y1="44.0809" y2="51.3195" fill="none" stroke="#fff" stroke-linecap="round" stroke-linejoin="round" stroke-width="2"></line>
    <line x1="31.3692" x2="30.2683" y1="44.0809" y2="51.3195" fill="none" stroke="#fff" stroke-linecap="round" stroke-linejoin="round" stroke-width="2"></line>
    <line x1="25.7875" x2="33.1094" y1="46.0973" y2="46.0901" fill="none" stroke="#fff" stroke-linecap="round" stroke-linejoin="round" stroke-width="2"></line>
    <line x1="25.3062" x2="32.628" y1="49.2832" y2="49.2759" fill="none" stroke="#fff" stroke-linecap="round" stroke-linejoin="round" stroke-width="2"></line>
    <path fill="none" stroke="#fff" stroke-linecap="round" stroke-linejoin="round" stroke-width="2" d="M40.2178,45.7188a1.5322,1.5322,0,0,0-1.4173-.8272,1.5714,1.5714,0,0,0-1.6771,1.3525s-.2434,1.3691,1.8124,1.4336c0,0,1.4607.2435,1.4607,1.4607,0,1.3337-1.4337,1.38-1.4337,1.38s-1.3707.1039-1.752-.732"></path>
    <line x1="38.8054" x2="38.8054" y1="44.6395" y2="43.6338" fill="none" stroke="#fff" stroke-linecap="round" stroke-linejoin="round" stroke-width="2"></line>
    <line x1="38.8054" x2="38.8054" y1="51.7782" y2="50.7725" fill="none" stroke="#fff" stroke-linecap="round" stroke-linejoin="round" stroke-width="2"></line>
  </g>
  <g id="line">
    <rect x="19.868" y="41.076" rx="4.0768" fill="none" stroke="#000" stroke-miterlimit="2" stroke-width="2"></rect>
  </g>
</svg>
