<svg id="emoji" viewBox="0 0 72 72" xmlns="http://www.w3.org/2000/svg">
  <g id="color">
    
    <path stroke-width="0.8516" d="m32.47 49h-3.617c-1.856-0.0056-3.36-1.546-3.365-3.448 0.0055-1.902 1.509-3.442 3.365-3.448h14.3c1.856 0.0056 3.36 1.546 3.365 3.448-0.0055 1.902-1.509 3.442-3.365 3.448h-1.785"></path>
    <path d="m40.87 49h-0.506"></path>
    <path d="m42.38 49h-1.505"></path>
    
    <path fill="#ffa7c0" d="m41.66 44.82c0 6.075-2.532 11-5.656 11s-5.656-4.925-5.656-11c4.014-1.7 7.761-1.537 11.31 0z"></path>
  </g>
  <g id="line">
    <path fill="none" stroke="#000" stroke-linecap="round" stroke-linejoin="round" stroke-miterlimit="10" stroke-width="2" d="m41.66 44.82c0 6.075-2.532 11-5.656 11s-5.656-4.925-5.656-11c5.141-1.979 8.198-0.9474 11.31 0z"></path>
    
    <path fill="none" stroke="#000" stroke-miterlimit="2" stroke-width="1.737" d="m31.56 49.05h-2.739c-1.865-0.0058-3.375-1.601-3.381-3.571 0.0055-1.97 1.516-3.566 3.381-3.571h14.37c1.865 0.0058 3.375 1.601 3.381 3.571-0.0055 1.97-1.516 3.566-3.381 3.571h-2.649"></path>
  </g>
</svg>
