<svg id="emoji" viewBox="0 0 72 72" xmlns="http://www.w3.org/2000/svg">
  
  <g id="line">
    <g>
      <g id="line-2">
        <path fill="none" stroke="#000000" stroke-linecap="round" stroke-linejoin="round" stroke-width="2" d="M36.4495,42.1182 c0,0,10.5509,3.1081,0.0462,5.5636c0,0,10.4821,2.9013,0.0408,4.9123"></path>
      </g>
      <path fill="none" stroke="#000000" stroke-linecap="round" stroke-linejoin="round" stroke-width="2" d="M24.7394,55.925 c-0.3282-0.4043-0.7191-0.7534-1.1578-1.0341c-2.4073-1.4907-5.562-0.8167-7.15,1.5276"></path>
      <path d="M29.2115,66.4594c0.8284-0.0287,1.4767-0.7235,1.448-1.552c-0.0273-0.7881-0.6599-1.4207-1.448-1.448 c-0.8284,0.0287-1.4767,0.7235-1.448,1.552C27.7908,65.7995,28.4234,66.4321,29.2115,66.4594z"></path>
      <path d="M20.2115,48.4594c0.8284-0.0287,1.4767-0.7235,1.448-1.552c-0.0273-0.7881-0.6599-1.4207-1.448-1.448 c-0.8284,0.0287-1.4767,0.7235-1.448,1.552C18.7908,47.7995,19.4234,48.4321,20.2115,48.4594z"></path>
      <path d="M44.2115,64.4594c0.8284-0.0287,1.4767-0.7235,1.448-1.552c-0.0273-0.7881-0.6599-1.4207-1.448-1.448 c-0.8284,0.0287-1.4767,0.7235-1.448,1.552C42.7908,63.7995,43.4234,64.4321,44.2115,64.4594z"></path>
    </g>
    <path fill="none" stroke="#000000" stroke-linecap="round" stroke-linejoin="round" stroke-width="2" d="M38.5628,47.9801h5.5 c0,0,5.5,0,5.5-3c0-2.2319-1.5221-2.8033-3.4339-2.95"></path>
  </g>
  <g id="color-foreground">
    
    <path fill="#8967AA" d="M44.2115,64.457c0.8284-0.0287,1.4767-0.7235,1.448-1.552c-0.0273-0.7881-0.6599-1.4207-1.448-1.448 c-0.8284,0.0287-1.4767,0.7235-1.448,1.552C42.7908,63.7971,43.4234,64.4297,44.2115,64.457z"></path>
    <path fill="#F4AA41" d="M29.2115,66.457c0.8284-0.0287,1.4767-0.7235,1.448-1.552c-0.0273-0.7881-0.6599-1.4207-1.448-1.448 c-0.8284,0.0287-1.4767,0.7235-1.448,1.552C27.7908,65.7971,28.4234,66.4297,29.2115,66.457z"></path>
    <path fill="#D22F27" d="M20.2115,48.457c0.8284-0.0287,1.4767-0.7235,1.448-1.552c-0.0273-0.7881-0.6599-1.4207-1.448-1.448 c-0.8284,0.0287-1.4767,0.7235-1.448,1.552C18.7908,47.7971,19.4234,48.4297,20.2115,48.457z"></path>
    
  </g>
</svg>
