<svg id="emoji" viewBox="0 0 72 72" version="1.1" xmlns="http://www.w3.org/2000/svg">
  <g id="color">
    
    <path fill="#fff" d="m11.65 36.29c-0.7568 1.745-1.128 3.633-1.089 5.535 0.1645 4.748 1.26 9.418 3.224 13.74 0.2737 0.5758 0.7167 0.5752 0.99 0 1.964-4.327 3.06-8.997 3.225-13.75v-5e-4c-9e-4 -4.313-1.67-7.822-3.72-7.822-0.9925-0.0025-1.926 0.8115-2.629 2.29z"></path>
    <path fill="#fff" d="m54.65 36.29c-0.7568 1.745-1.128 3.633-1.089 5.535 0.1645 4.748 1.26 9.418 3.224 13.74 0.2737 0.5758 0.7167 0.5752 0.99 0 1.964-4.327 3.06-8.997 3.225-13.75v-5e-4c-9e-4 -4.313-1.67-7.822-3.72-7.822-0.9925-0.0025-1.926 0.8115-2.629 2.29z"></path>
    <path fill="#fff" d="m48.34 16.8c0.795-0.1657 1.522-0.8843 1.665-2.799 0.2987-3.989-9-4-9-4s-3 0-9-3-12 7-12 7-3 6-5 5-5 2-3 6c0 0 1 7 6 2s3-8 10-7 11 0 11-2 5-4 7-2c0.5946 0.6418 1.472 0.942 2.335 0.7993"></path>
  </g>
  <g id="line">
    <path fill="none" stroke="#000" stroke-miterlimit="10" stroke-width="2" d="m11.65 36.29c-0.7568 1.745-1.128 3.633-1.089 5.535 0.1645 4.748 1.26 9.418 3.224 13.74 0.2737 0.5758 0.7167 0.5752 0.99 0 1.964-4.327 3.06-8.997 3.225-13.75v-5e-4c-9e-4 -4.313-1.67-7.822-3.72-7.822-0.9925-0.0025-1.926 0.8115-2.629 2.29z"></path>
    <path fill="none" stroke="#000" stroke-miterlimit="10" stroke-width="2" d="m54.65 36.29c-0.7568 1.745-1.128 3.633-1.089 5.535 0.1645 4.748 1.26 9.418 3.224 13.74 0.2737 0.5758 0.7167 0.5752 0.99 0 1.964-4.327 3.06-8.997 3.225-13.75v-5e-4c-9e-4 -4.313-1.67-7.822-3.72-7.822-0.9925-0.0025-1.926 0.8115-2.629 2.29z"></path>
    <path fill="none" stroke="#000" stroke-miterlimit="10" stroke-width="2" d="m48.34 16.8c0.795-0.1657 1.522-0.8843 1.665-2.799 0.2987-3.989-9-4-9-4s-3 0-9-3-12 7-12 7-3 6-5 5-5 2-3 6c0 0 1 7 6 2s3-8 10-7 11 0 11-2 5-4 7-2c0.5946 0.6418 1.472 0.942 2.335 0.7993"></path>
  </g>
</svg>
