<svg id="emoji" viewBox="0 0 72 72" xmlns="http://www.w3.org/2000/svg">
  <g id="color">
    <path fill="#92D3F5" d="m50.39 40.63c-0.5305-0.5275-0.8278-1.246-0.8256-1.994 0-2.479 2.343-4.851 2.443-4.95 0.2068-0.2071 0.5424-0.2073 0.7495-5e-4l5e-4 5e-4c0.1 0.1 2.443 2.472 2.444 4.951-0.0013 1.557-1.265 2.818-2.822 2.817-0.7462-6e-4 -1.462-0.2971-1.99-0.8243z"></path>
    
  </g>
  <g id="line">
    
    <path d="m30 30.92c-0.0014 1.657-1.346 2.999-3.002 2.998s-2.999-1.346-2.998-3.002 1.346-2.999 3.002-2.998c1.657 2e-3 2.998 1.346 2.998 3.002"></path>
    <path d="m48 30.94c-0.0014 1.657-1.346 2.999-3.002 2.998s-2.999-1.346-2.998-3.002 1.346-2.999 3.002-2.998c1.657 0.0019 2.998 1.346 2.998 3.002"></path>
    <path fill="none" stroke="#000" stroke-linecap="round" stroke-linejoin="round" stroke-miterlimit="10" stroke-width="2" d="m50.39 40.63c-0.5305-0.5275-0.8278-1.246-0.8256-1.994 0-2.479 2.343-4.851 2.443-4.95 0.2068-0.2071 0.5424-0.2073 0.7495-5e-4l5e-4 5e-4c0.1 0.1 2.443 2.472 2.444 4.951-0.0013 1.557-1.265 2.818-2.822 2.817-0.7462-6e-4 -1.462-0.2971-1.99-0.8243z"></path>
    
  </g>
</svg>
