<svg id="emoji" viewBox="0 0 72 72" xmlns="http://www.w3.org/2000/svg">
  
  <g id="line">
    <g>
      <path fill="none" stroke="#000000" stroke-linecap="round" stroke-linejoin="round" stroke-width="2" d="M66.4265,43.3491 c-0.5082-0.1136-0.995-0.3079-1.4418-0.5754c-2.4074-1.4903-3.2103-4.6144-1.82-7.0809"></path>
      <path d="M62.2115,25.4594c0.8284-0.0287,1.4767-0.7235,1.448-1.552c-0.0273-0.7881-0.6599-1.4207-1.448-1.448 c-0.8284,0.0287-1.4767,0.7235-1.448,1.552C60.7908,24.7995,61.4234,25.4321,62.2115,25.4594z"></path>
      <path d="M62.2115,50.4594c0.8284-0.0287,1.4767-0.7235,1.448-1.552c-0.0273-0.7881-0.6599-1.4207-1.448-1.448 c-0.8284,0.0287-1.4767,0.7235-1.448,1.552C60.7908,49.7995,61.4234,50.4321,62.2115,50.4594z"></path>
    </g>
    
  </g>
  <g id="color-foreground">
    <path fill="#8967AA" d="M62.2115,25.457c0.8284-0.0287,1.4767-0.7235,1.448-1.552c-0.0273-0.7881-0.6599-1.4207-1.448-1.448 c-0.8284,0.0287-1.4767,0.7235-1.448,1.552C60.7908,24.7971,61.4234,25.4297,62.2115,25.457z"></path>
    <path fill="#D22F27" d="M62.2115,50.457c0.8284-0.0287,1.4767-0.7235,1.448-1.552c-0.0273-0.7881-0.6599-1.4207-1.448-1.448 c-0.8284,0.0287-1.4767,0.7235-1.448,1.552C60.7908,49.7971,61.4234,50.4297,62.2115,50.457z"></path>
  </g>
</svg>
