<svg id="emoji" viewBox="0 0 72 72" xmlns="http://www.w3.org/2000/svg">
  <g id="color">
    
    <path fill="#FFA7C0" d="M11.3186,34.66c-0.0843,0.1747-0.2943,0.2481-0.4691,0.1637c-0.0715-0.0345-0.1292-0.0922-0.1637-0.1637 c-0.9703-2.0141-3.3896-2.8602-5.4036-1.8899c-2.0141,0.9703-2.8602,3.3896-1.8899,5.4036 c0.1063,0.2206,0.2323,0.4311,0.3766,0.6289l7.2333,9.2748l7.1911-9.218l0.232-0.3422c1.1619-1.91,0.5554-4.4002-1.3545-5.562 s-4.4002-0.5554-5.562,1.3545C11.4396,34.4233,11.3762,34.5402,11.3186,34.66z"></path>
    <path fill="#FFA7C0" d="M48.3186,7.66c-0.0843,0.1747-0.2943,0.2481-0.4691,0.1637C47.778,7.7892,47.7203,7.7315,47.6858,7.66 c-0.9703-2.0141-3.3896-2.8602-5.4036-1.8899s-2.8602,3.3896-1.8899,5.4036c0.1063,0.2206,0.2323,0.4311,0.3766,0.6289 l7.2333,9.2748l7.1911-9.218l0.232-0.3422c1.1619-1.91,0.5554-4.4002-1.3545-5.562c-1.91-1.1619-4.4002-0.5554-5.562,1.3545 C48.4396,7.4233,48.3762,7.5402,48.3186,7.66z"></path>
    
  </g>
  <g id="line">
    <path fill="none" stroke="#000000" stroke-linecap="round" stroke-linejoin="round" stroke-width="2" d="M7.04,32.3656 c-2.2368,0.0001-4.0499,1.8135-4.0498,4.0502c0,0.7409,0.2033,1.4677,0.5878,2.1011l0.232,0.3422l7.1911,9.218l7.2333-9.2748 c1.3204-1.8042,0.9281-4.3372-0.8761-5.6576s-4.3372-0.9281-5.6576,0.8761c-0.147,0.2008-0.2751,0.4148-0.3828,0.6391 c-0.0843,0.1747-0.2943,0.2481-0.4691,0.1637c-0.0715-0.0345-0.1292-0.0922-0.1637-0.1637 C10.0167,33.2541,8.5967,32.3603,7.04,32.3656z"></path>
    <path fill="none" stroke="#000000" stroke-linecap="round" stroke-linejoin="round" stroke-width="2" d="M44.04,5.3656 c-2.2368,0.0001-4.0499,1.8135-4.0498,4.0502c0,0.7409,0.2033,1.4677,0.5878,2.1011l0.232,0.3422l7.1911,9.218l7.2333-9.2748 c1.3204-1.8042,0.9281-4.3372-0.8761-5.6576c-1.8042-1.3204-4.3372-0.9281-5.6576,0.8761 c-0.147,0.2008-0.2751,0.4148-0.3828,0.6392c-0.0843,0.1747-0.2943,0.2481-0.4691,0.1637 c-0.0715-0.0345-0.1292-0.0922-0.1637-0.1637C47.0167,6.2541,45.5967,5.3603,44.04,5.3656z"></path>
    
    <path fill="none" stroke="#000000" stroke-linecap="round" stroke-linejoin="round" stroke-width="2" d="M53.7479,21.3699 C57.029,25.3456,59,30.4426,59,36c0,3.6035-0.8287,7.0135-2.3059,10.0497"></path>
    <path fill="none" stroke="#000000" stroke-linecap="round" stroke-linejoin="round" stroke-width="2" d="M14.7323,27.2273 C18.1806,18.8766,26.404,13,36,13"></path>
  </g>
</svg>
