<svg id="emoji" viewBox="0 0 72 72" xmlns="http://www.w3.org/2000/svg">
  <g id="color">
    <path fill="#fcea2b" d="m32.7519,14.2705l-2.2833.4438c-1.9976.3883-3.918,1.1015-5.6849,2.1111l-.2283.1305c-1.537.8783-2.9409,1.9713-4.1693,3.246l-.8095.8401c-1.4243,1.478-2.5945,3.1814-3.4631,5.0413l-.3195.6841c-1.152,2.4667-1.7491,5.1561-1.7491,7.8786v2.8894c0,3.3534.9057,6.6446,2.6214,9.526l.7741,1.2999c1.3927,2.3388,3.2812,4.3438,5.5326,5.8737l1.3181.8957c2.0855,1.4173,4.4372,2.3961,6.9124,2.8773l1.5022.292c2.1466.4173,4.3499.4531,6.5089.1059l.53-.0852c2.1646-.3481,4.2508-1.0758,6.1623-2.1495l1.6855-.9468c1.9876-1.1164,3.7532-2.5884,5.2091-4.3426l.5559-.6698c1.5025-1.8104,2.6482-3.8891,3.3766-6.1262l.6554-2.0129c.7868-2.4166,1.0706-4.9686.8339-7.499l-.0644-.6878c-.2064-2.2058-.8048-4.3571-1.7671-6.3527l-.9825-2.0376c-.8711-1.8065-2.0284-3.4604-3.4271-4.8978h0c-1.3468-1.384-2.9007-2.5501-4.606-3.4564l-1.7884-.9505c-1.8346-.975-3.8194-1.6361-5.8721-1.9558l-.5452-.0849c-2.1303-.3318-4.3021-.2912-6.4185.1202Z"></path>
  </g>
  <g id="line">
    <circle cx="36" cy="36" r="23" fill="none" stroke="#000" stroke-miterlimit="10" stroke-width="2"></circle>
  </g>
</svg>
