<svg id="emoji" viewBox="0 0 72 72" xmlns="http://www.w3.org/2000/svg">
  <g id="color">
    <path fill="#FFA7C0" d="M56.3186,52.66c-0.0843,0.1747-0.2943,0.2481-0.4691,0.1637c-0.0715-0.0345-0.1292-0.0922-0.1637-0.1637 c-0.9703-2.0141-3.3896-2.8602-5.4036-1.8899c-2.0141,0.9703-2.8602,3.3896-1.8899,5.4036 c0.1063,0.2206,0.2323,0.4311,0.3766,0.6289l7.2333,9.2748l7.1911-9.218l0.232-0.3422c1.1619-1.91,0.5554-4.4002-1.3545-5.562 c-1.91-1.1619-4.4002-0.5554-5.562,1.3545C56.4396,52.4233,56.3762,52.5402,56.3186,52.66z"></path>
  </g>
  <g id="line">
    
    <path fill="none" stroke="#000000" stroke-linecap="round" stroke-linejoin="round" stroke-width="2" d="M52.04,50.3656 c-2.2368,0.0001-4.0499,1.8135-4.0498,4.0502c0,0.7409,0.2033,1.4677,0.5878,2.1011l0.232,0.3422l7.1911,9.218l7.2333-9.2748 c1.3204-1.8042,0.9281-4.3372-0.8761-5.6576c-1.8042-1.3204-4.3372-0.9281-5.6576,0.8761 c-0.147,0.2008-0.2751,0.4148-0.3828,0.6392c-0.0843,0.1747-0.2943,0.2481-0.4691,0.1637 c-0.0715-0.0345-0.1292-0.0922-0.1637-0.1637C55.0167,51.2541,53.5967,50.3603,52.04,50.3656z"></path>
    <path fill="none" stroke="#000000" stroke-linecap="round" stroke-linejoin="round" stroke-width="2" d="M42.8076,57.9758 C40.6563,58.6415,38.37,59,36,59c-7.9391,0-14.9387-4.0224-19.072-10.1405"></path>
  </g>
</svg>
