<svg id="emoji" viewBox="0 0 72 72" xmlns="http://www.w3.org/2000/svg">
  
  <g id="color">
    <path fill="#3f3f3f" d="M42.817,44.4015s5.0827.07,2.5335,4.3472a4.4929,4.4929,0,0,0-1.8128-.8214s.2266,2.9174-3.5122,3.229V49.74s-.6041,2.096-4.0975,2.096h-.0168c-3.4933,0-4.0975-2.096-4.0975-2.096v1.4162c-3.7388-.3116-3.5122-3.229-3.5122-3.229a4.493,4.493,0,0,0-1.8127.8214c-2.5492-4.2769,2.5335-4.3472,2.5335-4.3472l2.5989.9312A4.3417,4.3417,0,0,0,36,48.332a4.4648,4.4648,0,0,0,4.4141-3.1354Z"></path>
  </g>
  <g id="line">
    <path fill="none" stroke="#000" stroke-linecap="round" stroke-linejoin="round" stroke-width="2" d="M31.6627,43.3662s-.7642,4.7622,4.2653,4.7622,4.2263-4.7622,4.2263-4.7622"></path>
    <path fill="none" stroke="#000" stroke-linecap="round" stroke-linejoin="round" stroke-width="2" d="M42.817,44.4015s5.0827.07,2.5335,4.3472a4.4929,4.4929,0,0,0-1.8128-.8214s.2266,2.9174-3.5122,3.229V49.74s-.6041,2.096-4.0975,2.096h-.0168c-3.4933,0-4.0975-2.096-4.0975-2.096v1.4162c-3.7388-.3116-3.5122-3.229-3.5122-3.229a4.493,4.493,0,0,0-1.8127.8214c-2.5492-4.2769,2.5335-4.3472,2.5335-4.3472"></path>
  </g>
</svg>
