<svg id="emoji" viewBox="0 0 72 72" xmlns="http://www.w3.org/2000/svg">
  <g id="color">
    
    <circle cx="44.45" cy="31.38" r="6.5" fill="#fff"></circle>
    <circle cx="27.76" cy="31.38" r="6.5" fill="#fff"></circle>
  </g>
  <g id="line">
    <circle cx="27.56" cy="31.38" r="6.5" fill="none" stroke="#000" stroke-miterlimit="10" stroke-width="2"></circle>
    <circle cx="44.65" cy="31.38" r="6.5" fill="none" stroke="#000" stroke-miterlimit="10" stroke-width="2"></circle>
    <path fill-rule="evenodd" d="m27.53,25.77c-2.5405.0149-4.592,2.0785-4.592,4.619,0,2.551,2.068,4.619,4.619,4.619s4.619-2.068,4.619-4.619-2.068-4.619-4.619-4.619c-.0091,0-.0182,0-.0273,0h.0003Zm-1.453,1.828c1.1046,0,2,.8954,2,2s-.8954,2-2,2-2-.8954-2-2,.8954-2,2-2Z"></path>
    <path fill-rule="evenodd" d="m44.62,25.77c-2.5405.0149-4.592,2.0785-4.592,4.619,0,2.551,2.068,4.619,4.619,4.619s4.619-2.068,4.619-4.619-2.068-4.619-4.619-4.619c-.0091,0-.0182,0-.0273,0h.0003Zm-1.453,1.828c1.1046,0,2,.8954,2,2s-.8954,2-2,2-2-.8954-2-2,.8954-2,2-2Z"></path>
  </g>
</svg>
