<svg id="emoji" viewBox="0 0 72 72" version="1.1" xmlns="http://www.w3.org/2000/svg">
  <g id="color">
    <path fill="#fff" d="m21.36 52.22c-0.5411 0.8848-0.8175 1.906-0.7965 2.943 0.1523 2.597 0.9634 5.112 2.357 7.308 0.094 0.1999 0.3323 0.2857 0.5322 0.1917 0.0843-0.0396 0.152-0.1074 0.1917-0.1917 1.394-2.197 2.205-4.712 2.358-7.309-7e-4 -2.294-1.221-4.16-2.72-4.16-0.8076 0.0481-1.534 0.508-1.922 1.218z"></path>
    <path fill="#fff" d="m47.36 52.22c-0.5411 0.8848-0.8175 1.906-0.7965 2.943 0.1523 2.597 0.9634 5.112 2.357 7.308 0.094 0.1999 0.3323 0.2857 0.5322 0.1917 0.0843-0.0396 0.152-0.1074 0.1917-0.1917 1.394-2.197 2.205-4.712 2.358-7.309-7e-4 -2.294-1.221-4.16-2.72-4.16-0.8076 0.0481-1.534 0.508-1.922 1.218z"></path>
    <path fill="#fff" d="m44.5 49.27h-17c-2.206-0.0065-3.994-1.794-4-4 0.0065-2.206 1.794-3.994 4-4h17c2.206 0.0065 3.994 1.794 4 4-0.0065 2.206-1.794 3.994-4 4z"></path>
    
  </g>
  <g id="line">
    <path fill="none" stroke="#000" stroke-linecap="round" stroke-miterlimit="10" stroke-width="2" d="m43.82 57.64c-4.716 1.696-9.854 1.813-14.64 0.3351"></path>
    <path fill="none" stroke="#000" stroke-miterlimit="10" stroke-width="2" d="m21.36 52.22c-0.5411 0.8848-0.8175 1.906-0.7965 2.943 0.1523 2.597 0.9634 5.112 2.357 7.308 0.094 0.1999 0.3323 0.2857 0.5322 0.1917 0.0843-0.0396 0.152-0.1074 0.1917-0.1917 1.394-2.197 2.205-4.712 2.358-7.309-7e-4 -2.294-1.221-4.16-2.72-4.16-0.8076 0.0481-1.534 0.508-1.922 1.218z"></path>
    <path fill="none" stroke="#000" stroke-miterlimit="10" stroke-width="2" d="m47.36 52.22c-0.5411 0.8848-0.8175 1.906-0.7965 2.943 0.1523 2.597 0.9634 5.112 2.357 7.308 0.094 0.1999 0.3323 0.2857 0.5322 0.1917 0.0843-0.0396 0.152-0.1074 0.1917-0.1917 1.394-2.197 2.205-4.712 2.358-7.309-7e-4 -2.294-1.221-4.16-2.72-4.16-0.8076 0.0481-1.534 0.508-1.922 1.218z"></path>
    <path fill="none" stroke="#000" stroke-miterlimit="2" stroke-width="2" d="m44.5 49.27h-17c-2.206-0.0065-3.994-1.794-4-4 0.0065-2.206 1.794-3.994 4-4h17c2.206 0.0065 3.994 1.794 4 4-0.0065 2.206-1.794 3.994-4 4z"></path>
    <line x1="28" x2="28" y1="41.77" y2="48.77" fill="none" stroke="#000" stroke-linecap="round" stroke-linejoin="round" stroke-width="2"></line>
    <line x1="33" x2="33" y1="41.77" y2="48.77" fill="none" stroke="#000" stroke-linecap="round" stroke-linejoin="round" stroke-width="2"></line>
    <line x1="38" x2="38" y1="41.77" y2="48.77" fill="none" stroke="#000" stroke-linecap="round" stroke-linejoin="round" stroke-width="2"></line>
    <line x1="43" x2="43" y1="41.77" y2="48.77" fill="none" stroke="#000" stroke-linecap="round" stroke-linejoin="round" stroke-width="2"></line>
  </g>
</svg>
