<svg id="emoji" viewBox="0 0 72 72" version="1.1" xmlns="http://www.w3.org/2000/svg">
  <g id="color">
    
    <path fill="#fff" stroke-miterlimit="10" d="m30.4 29.24c-0.6985 5.002-4.822 9.057-9.199 9.057s-7.368-4.055-6.67-9.057c0.6977-4.996 4.822-9.057 9.199-9.057s7.368 4.06 6.67 9.057"></path>
    <path fill="#fff" stroke-miterlimit="10" d="m41.63 29.24c0.6985 5.002 4.822 9.057 9.199 9.057s7.368-4.055 6.67-9.057c-0.6977-4.996-4.822-9.057-9.199-9.057s-7.368 4.06-6.67 9.057"></path>
  </g>
  <g id="line">
    <path fill="none" stroke="#000" stroke-miterlimit="10" stroke-width="2" d="m30.4 29.24c-0.6985 5.002-4.822 9.057-9.199 9.057s-7.368-4.055-6.67-9.057c0.6977-4.996 4.822-9.057 9.199-9.057s7.368 4.06 6.67 9.057"></path>
    <path fill="none" stroke="#000" stroke-linecap="round" stroke-linejoin="round" stroke-miterlimit="10" stroke-width="2" d="m41.63 29.24c0.6985 5.002 4.822 9.057 9.199 9.057s7.368-4.055 6.67-9.057c-0.6977-4.996-4.822-9.057-9.199-9.057s-7.368 4.06-6.67 9.057"></path>
    
  </g>
</svg>
