<svg id="emoji" viewBox="0 0 72 72" xmlns="http://www.w3.org/2000/svg">
  <g id="color">
    
    <path fill="#fff" d="M47.04,38.39c-.56,.25-1.19,.39-1.84,.41-1.17-1.97-1.89-3.42-2.52-4.77-.87-1.8701-1.76-2.46-2.44-2.45,.43-.97,1.13-1.79,2.02-2.34,.8-.5,1.74-.79,2.74-.79,.88,0,1.7,.22,2.43,.61-.49,1.8-.01,5.37-.39,9.33Z"></path>
  </g>
  
  <g id="line">
    <path d="M46.9428,33.6341c0,1.0703-.8693,1.9388-1.9388,1.9388s-1.9388-.8678-1.9388-1.9388c0-1.0695,.8693-1.9388,1.9388-1.9388s1.9388,.8693,1.9388,1.9388"></path>
    
    <path fill="none" stroke="#000" stroke-miterlimit="10" stroke-width="2" d="M40.24,31.58c.43-.97,1.13-1.79,2.02-2.34,.8-.5,1.74-.79,2.74-.79,.88,0,1.7,.22,2.43,.61"></path>
  </g>
</svg>
