<svg id="emoji" viewBox="0 0 72 72" xmlns="http://www.w3.org/2000/svg">
  
  <g id="line">
    <path fill="none" stroke="#000" stroke-linecap="round" stroke-miterlimit="10" stroke-width="2" d="M49.2188,55.98h2.9939a1.7319,1.7319,0,0,0,1.7319-1.7319h0a2.1331,2.1331,0,0,0-1.9834-2.1278l-.7553-.0531a1.6331,1.6331,0,0,1-1.5186-1.6291h0a2.94,2.94,0,0,1,3.2664-2.922l1.3671.1526a21.143,21.143,0,0,0,4.3192.0381l2.5928-.2432A3.1628,3.1628,0,0,0,64.1,44.315h0a2.8164,2.8164,0,0,0-2.8164-2.8165H56.4785"></path>
    <path fill="none" stroke="#000" stroke-linecap="round" stroke-miterlimit="10" stroke-width="1.928" d="M32.9891,36.805a10.8681,10.8681,0,0,0,10.8831,3.2472"></path>
  </g>
</svg>
