<svg id="emoji" viewBox="0 0 72 72" xmlns="http://www.w3.org/2000/svg">
  
  <g id="skin">
    <circle cx="36" cy="36" r="23" fill="none" stroke="#fcea2b" stroke-linecap="round" stroke-linejoin="round" stroke-width="2"></circle>
    <path id="skin-2" fill="#fcea2b" d="M36,13c-12.7026,0-23,10.2974-23,23s10.2974,23,23,23,23-10.2974,23-23-10.2974-23-23-23Zm5.62,35.56c-.56,2.6-2.86,4.53-5.62,4.53s-5.06-1.9301-5.62-4.53v-.01l2.68-6.1c.01-.01,.01-.02,.02-.04,.86-.52,1.86-.81,2.92-.81s2.06,.29,2.92,.81h.01l2.69,6.14v.01Zm5.42-10.17c-.56,.25-1.19,.39-1.84,.41-1.17-1.97-1.89-3.42-2.52-4.77-.87-1.8701-1.76-2.46-2.44-2.45,.43-.97,1.13-1.79,2.02-2.34,.8-.5,1.74-.79,2.74-.79,.88,0,1.7,.22,2.43,.61-.49,1.8-.01,5.37-.39,9.33Z"></path>
    <path fill="#fcea2b" d="M16.0359,57.8762c.6-3,1.169-6.1968,1.369-7.0968-.4-.8-.8-1.7-1.2-2.5-.2-.4-.6-1.6-1.2-8.3-.2-2-.1-3.1,.5-3.8,.2894-.3703,.7301-.5906,1.2-.6,1.3,0,2.1128,1.1756,2.3896,3.4044,2.7603-7.3627,4.0952-11.5004,6.4169-10.2728,1.1145,.5893,.898,1.837,.898,1.837,1.774-4.0421,5.0508-1.4963,3.3908,1.4442,0,0,1.6297-1.3548,2.658-.029,.6537,.8428,.2595,1.7936-1.036,4.5196,1.6014-1.8518,3.3371-.0749,2.9059,1.7059-2.4426,10.0891-7.8439,16.3489-7.8439,16.3489,0,0-.6175,2.5635-.7412,4.0396l-9.7071-.7009Z"></path>
    <path fill="#fcea2b" d="M46.3837,58.5627c-.13-1.48-.8637-4.0227-.8637-4.0227,0,0-5.41-6.26-7.85-16.35-.43-1.78,1.14-3.18,2.53-1.79-1.55-2.92-1.78-4.25-.33-4.76,.12-.04,.23-.06,.37-.06,.68-.01,1.57,.58,2.44,2.45,.63,1.35,1.35,2.8,2.52,4.77,.41,.7,.89,1.47,1.43,2.33,.2-.92,.33-1.84,.41-2.74,.38-3.96-.1-7.53,.39-9.33,.22-.83,.65-1.29,1.46-1.24,.89,.06,1.56,.91,1.4,2.18,0,0,.75-1.49,2.21-.72,1.22,.65,.74,1.89,.41,9.7,.27-2.22,1.09-3.4,2.39-3.4,.46,.01,.91,.23,1.2,.6,.6,.7,.7,1.8,.5,3.8-.6,6.7-1,7.9-1.2,8.3-.4,.8-.8,1.7-1.2,2.5,.2,.9,.7549,4.101,1.3549,7.101l-9.5713,.6816Z"></path>
  </g>
  
</svg>
