<svg id="emoji" viewBox="0 0 72 72" xmlns="http://www.w3.org/2000/svg">
  <g id="color">
    <path fill="#FFFFFF" d="M53.0148,20.6654c1.2729-1.2642,2.132-2.1147,2.4157-2.3897c0,0,1.9438,1.8393,3.2697,1.4425 c1.3739-0.4111,2.157-1.8078,2.036-2.9537c-0.1677-1.5889-2.11-3.0402-4.4383-2.5565c0.4057-1.5126,0.0682-3.0622-0.9331-3.9948 c-1.6539-1.5404-4.078-0.4787-4.9897,0.9177c-1.2203,1.8691,1.5734,3.6628,1.5734,3.6628 c-0.2657,0.2576-1.0353,1.0191-2.1762,2.1518"></path>
    <path fill="#FFFFFF" d="M19.6785,46.9079c-1.5494,1.5397-2.5998,2.5803-2.9198,2.8905c-0.6553-1.3027-2.133-1.943-3.4588-1.5463 c-1.3739,0.4111-2.157,1.8078-2.036,2.9537c0.1677,1.5889,2.11,3.0402,4.4383,2.5565c-0.4057,1.5126-0.0682,3.0622,0.9332,3.9948 c1.6539,1.5404,4.3294,0.6137,4.9897-0.9177c0.469-1.0879,0.1927-2.2976-1.4383-3.5051c0.2604-0.2525,1.0057-0.9898,2.1108-2.087"></path>
    <path fill="#FFFFFF" d="M19.1125,20.7917c-1.3428-1.3339-2.2498-2.2319-2.5429-2.5161c0,0-1.9438,1.8393-3.2697,1.4425 c-1.3739-0.4111-2.157-1.8078-2.036-2.9537c0.1677-1.5889,2.11-3.0402,4.4383-2.5565c-0.4057-1.5126-0.0682-3.0622,0.9332-3.9948 c1.6539-1.5404,4.078-0.4787,4.9897,0.9177c1.2203,1.8691-1.5735,3.6629-1.5735,3.6629c0.2863,0.2776,1.1575,1.14,2.4478,2.4216"></path>
    <path fill="#FFFFFF" d="M52.4968,47.0821c1.4533,1.4439,2.4367,2.4179,2.7444,2.7162c0.6553-1.3027,2.133-1.943,3.4588-1.5463 c1.3739,0.4111,2.157,1.8078,2.036,2.9537c-0.1677,1.5889-2.11,3.0402-4.4383,2.5565c0.4057,1.5126,0.0682,3.0622-0.9331,3.9948 c-1.6539,1.5404-4.3294,0.6137-4.9897-0.9177c-0.469-1.0879-0.1927-2.2976,1.4383-3.5051c-0.2579-0.25-0.9912-0.9755-2.0786-2.055"></path>
  </g>
  <g id="line">
    <path fill="none" stroke="#000000" stroke-linecap="round" stroke-linejoin="round" stroke-width="2" d="M53.0148,20.6654 c1.2729-1.2642,2.132-2.1147,2.4157-2.3897c0,0,1.9438,1.8393,3.2697,1.4425c1.3739-0.4111,2.157-1.8078,2.036-2.9537 c-0.1677-1.5889-2.11-3.0402-4.4383-2.5565c0.4057-1.5126,0.0682-3.0622-0.9331-3.9948c-1.6539-1.5404-4.078-0.4787-4.9897,0.9177 c-1.2203,1.8691,1.5734,3.6628,1.5734,3.6628c-0.2657,0.2576-1.0353,1.0191-2.1762,2.1518"></path>
    <path fill="none" stroke="#000000" stroke-linecap="round" stroke-linejoin="round" stroke-width="2" d="M19.6785,46.9079 c-1.5494,1.5397-2.5998,2.5803-2.9198,2.8905c-0.6553-1.3027-2.133-1.943-3.4588-1.5463c-1.3739,0.4111-2.157,1.8078-2.036,2.9537 c0.1677,1.5889,2.11,3.0402,4.4383,2.5565c-0.4057,1.5126-0.0682,3.0622,0.9332,3.9948c1.6539,1.5404,4.3294,0.6137,4.9897-0.9177 c0.469-1.0879,0.1927-2.2976-1.4383-3.5051c0.2604-0.2525,1.0057-0.9898,2.1108-2.087"></path>
    <path fill="none" stroke="#000000" stroke-linecap="round" stroke-linejoin="round" stroke-width="2" d="M19.1125,20.7917 c-1.3428-1.3339-2.2498-2.2319-2.5429-2.5161c0,0-1.9438,1.8393-3.2697,1.4425c-1.3739-0.4111-2.157-1.8078-2.036-2.9537 c0.1677-1.5889,2.11-3.0402,4.4383-2.5565c-0.4057-1.5126-0.0682-3.0622,0.9332-3.9948c1.6539-1.5404,4.078-0.4787,4.9897,0.9177 c1.2203,1.8691-1.5735,3.6629-1.5735,3.6629c0.2863,0.2776,1.1575,1.14,2.4478,2.4216"></path>
    <path fill="none" stroke="#000000" stroke-linecap="round" stroke-linejoin="round" stroke-width="2" d="M52.4968,47.0821 c1.4533,1.4439,2.4367,2.4179,2.7444,2.7162c0.6553-1.3027,2.133-1.943,3.4588-1.5463c1.3739,0.4111,2.157,1.8078,2.036,2.9537 c-0.1677,1.5889-2.11,3.0402-4.4383,2.5565c0.4057,1.5126,0.0682,3.0622-0.9331,3.9948c-1.6539,1.5404-4.3294,0.6137-4.9897-0.9177 c-0.469-1.0879-0.1927-2.2976,1.4383-3.5051c-0.2579-0.25-0.9912-0.9755-2.0786-2.055"></path>
  </g>
</svg>
