<svg id="emoji" viewBox="0 0 72 72" xmlns="http://www.w3.org/2000/svg">
  <g id="color">
    <path fill="#ea5a47" stroke="#ea5a47" stroke-miterlimit="10" d="m15.3127,11h41l-.4087,34.0923-1.7905,4.6783-2.5492,4.3957-2.9134,2.9134-2.8831,2.0637-4.1474,1.8149-4.9635.8888c-.8756-.0237-1.7477-.1194-2.6076-.2862l-4.639-.9001-4.4658-1.9235c-.2193-.1136-.4318-.2397-.6366-.3776l-1.9475-1.312c-.6975-.6975-1.3447-1.4437-1.9365-2.2328l-2.1111-2.8148-1.0908-1.6362c-.5993-.8989-1.001-1.9148-1.1786-2.9805l-.5259-3.1555c-.1362-.8171-.2046-1.6441-.2046-2.4724V11Z"></path>
  </g>
  
</svg>
