<svg xmlns="http://www.w3.org/2000/svg" viewBox="0 0 200 200">
  <defs>
    <linearGradient id="bg" x1="0" y1="0" x2="0.3" y2="1">
      <stop offset="0" stop-color="#FF7E7E"/>
      <stop offset="1" stop-color="#FF4FA3"/>
    </linearGradient>
  </defs>
  <rect width="200" height="200" fill="url(#bg)"/>
  <svg x="22" y="22" width="156" height="156" viewBox="-8 -8 88 88" overflow="visible">
<g><g> <circle cx="36" cy="36" r="23" fill="#FCEA2B"></circle> </g> <g> <circle cx="36" cy="36" r="23" fill="none" stroke="#000000" stroke-linecap="round" stroke-linejoin="round" stroke-width="2"></circle> </g></g><g transform="translate(2 -4)"><g> <path fill="none" stroke="#000000" stroke-linecap="round" stroke-linejoin="round" stroke-width="2" d="M22.4,22.5c1.3-0.9,2.8-1.3,4.4-1.1c1.6,0,3.1,0.6,4.2,1.7"></path> <path fill="none" stroke="#000000" stroke-linecap="round" stroke-linejoin="round" stroke-width="2" d="M51.1,26.5c-2.7-0.7-5.5-0.8-8.2-0.3"></path> </g></g><g transform="translate(3 3)"><g> <path d="M34.5271,32.43A7.5,7.5,0,1,0,20.68,36.4072a.849.849,0,0,1,.4048-.9526A2.2182,2.2182,0,0,1,22.28,35.194a5.483,5.483,0,0,1,4.0127-8.2089,5.38,5.38,0,1,0,5.7986,8.2175,3.1305,3.1305,0,0,1,.7326.0782h.001a.8779.8779,0,0,1,.586.5429.8591.8591,0,0,1,.0063.513A7.4441,7.4441,0,0,0,34.5271,32.43ZM28.3933,33.444a3,3,0,1,1,3-3A3.0011,3.0011,0,0,1,28.3933,33.444Z"></path> <path d="M51.5671,32.43a7.5,7.5,0,1,0-13.8706,3.9387.8854.8854,0,0,1,.0063-.3518.87.87,0,0,1,.4131-.5615,2.2085,2.2085,0,0,1,1.2056-.2589,5.4822,5.4822,0,0,1,3.9175-8.1973,5.3817,5.3817,0,1,0,5.8625,8.2041,3.1979,3.1979,0,0,1,.7537.0782.8773.8773,0,0,1,.5869.543.8611.8611,0,0,1-.01.5532A7.445,7.445,0,0,0,51.5671,32.43ZM45.404,33.444a3,3,0,1,1,3-3A3.0011,3.0011,0,0,1,45.404,33.444Z"></path> </g> <g> <circle cx="26.9772" cy="32.43" r="6.5" fill="#fff"></circle> <circle cx="44.0672" cy="32.43" r="6.5" fill="#fff"></circle> <g> <path fill="#92d3f5" d="M32.8187,35.3a3.8636,3.8636,0,0,0-1.8526.0469,5.3159,5.3159,0,0,0-1.0254.5146c-.3291.1992-.7383.4463-1.1523.6524a4.304,4.304,0,0,1-3.6973-.209c-.1435-.0762-.2851-.1612-.4228-.2432l-.044-.0264a6.7817,6.7817,0,0,0-1.07-.5546,3.0462,3.0462,0,0,0-2.46-.0088.8533.8533,0,0,0-.2783,1.2158A7.3588,7.3588,0,0,0,27.0042,39.96a7.5324,7.5324,0,0,0,6.291-3.3554A.8547.8547,0,0,0,32.8187,35.3Z"></path> <path fill="#92d3f5" d="M50.4231,35.8315a.857.857,0,0,0-.5732-.53,3.8644,3.8644,0,0,0-1.8525.0468,5.31,5.31,0,0,0-1.0254.5147c-.3291.1992-.7383.4463-1.1524.6523a4.3034,4.3034,0,0,1-3.6972-.2089c-.1436-.0762-.2852-.1612-.4229-.2432l-.0439-.0264a6.7906,6.7906,0,0,0-1.07-.5547,3.0506,3.0506,0,0,0-2.46-.0088.8534.8534,0,0,0-.2783,1.2159,7.3586,7.3586,0,0,0,6.1885,3.2724,7.5085,7.5085,0,0,0,6.291-3.3554A.8684.8684,0,0,0,50.4231,35.8315Z"></path> </g> <path d="M34.5271,32.43A7.5,7.5,0,1,0,20.68,36.4072a.849.849,0,0,1,.4048-.9526A2.2182,2.2182,0,0,1,22.28,35.194a5.483,5.483,0,0,1,4.0127-8.2089,5.38,5.38,0,1,0,5.7986,8.2175,3.1305,3.1305,0,0,1,.7326.0782h.001a.8779.8779,0,0,1,.586.5429.8591.8591,0,0,1,.0063.513A7.4441,7.4441,0,0,0,34.5271,32.43ZM28.3933,33.444a3,3,0,1,1,3-3A3.0011,3.0011,0,0,1,28.3933,33.444Z"></path> <path d="M51.5671,32.43a7.5,7.5,0,1,0-13.8706,3.9387.8854.8854,0,0,1,.0063-.3518.87.87,0,0,1,.4131-.5615,2.2085,2.2085,0,0,1,1.2056-.2589,5.4822,5.4822,0,0,1,3.9175-8.1973,5.3817,5.3817,0,1,0,5.8625,8.2041,3.1979,3.1979,0,0,1,.7537.0782.8773.8773,0,0,1,.5869.543.8611.8611,0,0,1-.01.5532A7.445,7.445,0,0,0,51.5671,32.43ZM45.404,33.444a3,3,0,1,1,3-3A3.0011,3.0011,0,0,1,45.404,33.444Z"></path> </g></g><g transform="translate(1 4)"><g> <path fill="#FFFFFF" d="M50.595,41.64c0.012,1.5397-0.2838,3.0662-0.87,4.49c-12.49,3.03-25.43,0.34-27.49-0.13 c-0.5588-1.3852-0.8407-2.8664-0.83-4.36h0.11c0,0,14.8,3.59,28.89,0.07L50.595,41.64z"></path> <path fill="#EA5A47" d="M49.7251,46.13c-1.79,4.27-6.35,7.23-13.69,7.23c-7.41,0-12.03-3.03-13.8-7.36 C24.2951,46.47,37.235,49.16,49.7251,46.13z"></path> </g> <g> <path fill="none" stroke="#000000" stroke-linecap="round" stroke-linejoin="round" stroke-width="2" d="M50.595,41.64 c0.012,1.5397-0.2838,3.0662-0.87,4.49c-12.49,3.03-25.43,0.34-27.49-0.13c-0.5588-1.3852-0.8407-2.8664-0.83-4.36h0.11 c0,0,14.8,3.59,28.89,0.07L50.595,41.64z"></path> <path fill="none" stroke="#000000" stroke-linecap="round" stroke-linejoin="round" stroke-width="2" d="M49.7251,46.13 c-1.79,4.27-6.35,7.23-13.69,7.23c-7.41,0-12.03-3.03-13.8-7.36C24.2951,46.47,37.235,49.16,49.7251,46.13z"></path> </g></g><g transform="translate(4 10)"><g> <path fill="#3F3F3F" d="M45.331,38.5639c3.9628,0,7.1782-2.8618,7.1782-6.3889c0-1.7646,0.4473-3.5291-0.8519-4.6852 s-4.3449-1.7037-6.3264-1.7037c-2.3567,0-5.1428,0.1434-6.4514,1.7037c-0.8933,1.0652-0.7268,3.2534-0.7268,4.6852 C38.1528,35.7021,41.3655,38.5639,45.331,38.5639z"></path> <path fill="#3F3F3F" d="M25.7384,38.5639c3.9628,0,7.1782-2.8618,7.1782-6.3889c0-1.7646,0.4473-3.5291-0.8519-4.6852 s-4.3449-1.7037-6.3264-1.7037c-2.3567,0-5.1428,0.1434-6.4514,1.7037c-0.8933,1.0652-0.7268,3.2534-0.7268,4.6852 C18.5602,35.7021,21.7729,38.5639,25.7384,38.5639z"></path> </g> <g> <path fill="none" stroke="#000000" stroke-linecap="round" stroke-linejoin="round" stroke-miterlimit="10" stroke-width="2" d="M18.8826,30.4638c0,0-0.953,8.5508,6.8608,7.9185c2.6197-0.212,7.8164-0.6507,7.867-8.3427 c0.0046-0.6979-0.0078-1.5989-0.8108-2.6298c-1.0647-1.3669-3.5716-1.9711-9.9446-1.422 C22.8551,25.9879,19.4088,25.8888,18.8826,30.4638z"></path> <polyline fill="none" stroke="#000000" stroke-linecap="round" stroke-linejoin="round" stroke-miterlimit="10" stroke-width="2" points="18.9534,29.9307 18.5203,26.5594 22.3532,26.0317"></polyline> <path fill="none" stroke="#000000" stroke-linecap="round" stroke-linejoin="round" stroke-miterlimit="10" stroke-width="2" d="M52.7412,30.4638c0,0,0.953,8.5508-6.8608,7.9185c-2.6197-0.212-7.8164-0.6507-7.867-8.3427 c-0.0046-0.6979,0.0078-1.5989,0.8108-2.6298c1.0647-1.3669,3.5716-1.9711,9.9446-1.422 C48.7688,25.9879,52.2151,25.8888,52.7412,30.4638z"></path> <path fill="none" stroke="#000000" stroke-linecap="round" stroke-linejoin="round" stroke-miterlimit="10" stroke-width="2" d="M31.5048,26.4158c0,0,4.1241,2.5339,8.6569,0"></path> <path fill="none" stroke="#000000" stroke-linecap="round" stroke-linejoin="round" stroke-miterlimit="10" stroke-width="2" d="M33.5361,31.3179c0,0,2.2019-3.7509,4.5362,0"></path> <polyline fill="none" stroke="#000000" stroke-linecap="round" stroke-linejoin="round" stroke-miterlimit="10" stroke-width="2" points="52.6639,29.9332 53.097,26.5619 49.2641,26.0342"></polyline> <path fill="none" stroke="#000000" stroke-linecap="round" stroke-linejoin="round" stroke-miterlimit="10" stroke-width="2" d="M33.9549,30.0271c0,0,1.7954-3.7509,3.6988,0"></path> </g></g>
  </svg>
</svg>
